solid OpenSCAD_Model
  facet normal 0.000190489 0.735949 0.677037
    outer loop
      vertex 92.5758 5.57359 4.39443
      vertex -97.1068 6.06763 3.91077
      vertex -97.3962 5.57359 4.44788
    endloop
  endfacet
  facet normal 0.000190456 0.735943 0.677044
    outer loop
      vertex -97.1068 6.06763 3.91077
      vertex 92.5758 5.57359 4.39443
      vertex 92.8652 6.06763 3.85733
    endloop
  endfacet
  facet normal 0.47401 0 -0.880519
    outer loop
      vertex 94.8679 -7.5 -0.0711413
      vertex 94.956 7.5 -0.0237144
      vertex 94.956 -7.5 -0.0237144
    endloop
  endfacet
  facet normal 0.47401 0 -0.880519
    outer loop
      vertex 94.956 7.5 -0.0237144
      vertex 94.8679 -7.5 -0.0711413
      vertex 94.8679 7.5 -0.0711413
    endloop
  endfacet
  facet normal 0.880403 -0.000779821 0.474225
    outer loop
      vertex 94.2164 7.33611 1.34909
      vertex 94.956 7.5 -0.0237144
      vertex 94.5842 7.45891 0.666468
    endloop
  endfacet
  facet normal 0.880343 0.000424284 0.474337
    outer loop
      vertex 93.8568 7.13292 2.01667
      vertex 94.956 7.5 -0.0237144
      vertex 94.2164 7.33611 1.34909
    endloop
  endfacet
  facet normal 0.880378 -3.07932e-05 0.474273
    outer loop
      vertex 93.5092 6.85159 2.66189
      vertex 94.956 7.5 -0.0237144
      vertex 93.8568 7.13292 2.01667
    endloop
  endfacet
  facet normal 0.880395 -0.000204583 0.474241
    outer loop
      vertex 93.1774 6.49519 3.2777
      vertex 94.956 7.5 -0.0237144
      vertex 93.5092 6.85159 2.66189
    endloop
  endfacet
  facet normal 0.880338 0.000242444 0.474346
    outer loop
      vertex 92.8652 6.06763 3.85733
      vertex 94.956 7.5 -0.0237144
      vertex 93.1774 6.49519 3.2777
    endloop
  endfacet
  facet normal 0.8804 -0.000157642 0.474232
    outer loop
      vertex 92.5758 5.57359 4.39443
      vertex 94.956 7.5 -0.0237144
      vertex 92.8652 6.06763 3.85733
    endloop
  endfacet
  facet normal 0.880332 0.000216681 0.474358
    outer loop
      vertex 92.3126 5.01848 4.88314
      vertex 94.956 7.5 -0.0237144
      vertex 92.5758 5.57359 4.39443
    endloop
  endfacet
  facet normal 0.880421 -0.000205249 0.474193
    outer loop
      vertex 92.0782 4.40839 5.31808
      vertex 94.956 7.5 -0.0237144
      vertex 92.3126 5.01848 4.88314
    endloop
  endfacet
  facet normal 0.880331 0.000168704 0.474361
    outer loop
      vertex 91.8755 3.75 5.69449
      vertex 94.956 7.5 -0.0237144
      vertex 92.0782 4.40839 5.31808
    endloop
  endfacet
  facet normal 0.880409 -0.000118467 0.474215
    outer loop
      vertex 91.7064 3.05052 6.00826
      vertex 94.956 7.5 -0.0237144
      vertex 91.8755 3.75 5.69449
    endloop
  endfacet
  facet normal 0.880357 5.18716e-05 0.474312
    outer loop
      vertex 91.573 2.31763 6.25594
      vertex 94.956 7.5 -0.0237144
      vertex 91.7064 3.05052 6.00826
    endloop
  endfacet
  facet normal 0.880391 -4.76711e-05 0.474248
    outer loop
      vertex 91.4766 1.55934 6.43482
      vertex 94.956 7.5 -0.0237144
      vertex 91.573 2.31763 6.25594
    endloop
  endfacet
  facet normal 0.880352 5.46963e-05 0.474321
    outer loop
      vertex 91.4184 0.783963 6.54293
      vertex 94.956 7.5 -0.0237144
      vertex 91.4766 1.55934 6.43482
    endloop
  endfacet
  facet normal 0.880382 -1.69744e-05 0.474265
    outer loop
      vertex 91.3989 0 6.5791
      vertex 94.956 7.5 -0.0237144
      vertex 91.4184 0.783963 6.54293
    endloop
  endfacet
  facet normal 0.880367 1.52836e-05 0.474293
    outer loop
      vertex 91.4184 -0.783963 6.54293
      vertex 94.956 7.5 -0.0237144
      vertex 91.3989 0 6.5791
    endloop
  endfacet
  facet normal 0.880352 -5.46963e-05 0.474321
    outer loop
      vertex 94.956 -7.5 -0.0237144
      vertex 91.4184 -0.783963 6.54293
      vertex 91.4766 -1.55934 6.43482
    endloop
  endfacet
  facet normal 0.880391 4.76711e-05 0.474248
    outer loop
      vertex 94.956 -7.5 -0.0237144
      vertex 91.4766 -1.55934 6.43482
      vertex 91.573 -2.31763 6.25594
    endloop
  endfacet
  facet normal 0.880357 -5.18716e-05 0.474312
    outer loop
      vertex 94.956 -7.5 -0.0237144
      vertex 91.573 -2.31763 6.25594
      vertex 91.7064 -3.05052 6.00826
    endloop
  endfacet
  facet normal 0.880409 0.000118467 0.474215
    outer loop
      vertex 94.956 -7.5 -0.0237144
      vertex 91.7064 -3.05052 6.00826
      vertex 91.8755 -3.75 5.69449
    endloop
  endfacet
  facet normal 0.880331 -0.000168704 0.474361
    outer loop
      vertex 94.956 -7.5 -0.0237144
      vertex 91.8755 -3.75 5.69449
      vertex 92.0782 -4.40839 5.31808
    endloop
  endfacet
  facet normal 0.880421 0.000205249 0.474193
    outer loop
      vertex 94.956 -7.5 -0.0237144
      vertex 92.0782 -4.40839 5.31808
      vertex 92.3126 -5.01848 4.88314
    endloop
  endfacet
  facet normal 0.880332 -0.000216681 0.474358
    outer loop
      vertex 94.956 -7.5 -0.0237144
      vertex 92.3126 -5.01848 4.88314
      vertex 92.5758 -5.57359 4.39443
    endloop
  endfacet
  facet normal 0.8804 0.000157642 0.474232
    outer loop
      vertex 94.956 -7.5 -0.0237144
      vertex 92.5758 -5.57359 4.39443
      vertex 92.8652 -6.06763 3.85733
    endloop
  endfacet
  facet normal 0.880338 -0.000242444 0.474346
    outer loop
      vertex 94.956 -7.5 -0.0237144
      vertex 92.8652 -6.06763 3.85733
      vertex 93.1774 -6.49519 3.2777
    endloop
  endfacet
  facet normal 0.880395 0.000204583 0.474241
    outer loop
      vertex 94.956 -7.5 -0.0237144
      vertex 93.1774 -6.49519 3.2777
      vertex 93.5092 -6.85159 2.66189
    endloop
  endfacet
  facet normal 0.880378 3.07932e-05 0.474273
    outer loop
      vertex 94.956 -7.5 -0.0237144
      vertex 93.5092 -6.85159 2.66189
      vertex 93.8568 -7.13292 2.01667
    endloop
  endfacet
  facet normal 0.880343 -0.000424284 0.474337
    outer loop
      vertex 94.956 -7.5 -0.0237144
      vertex 93.8568 -7.13292 2.01667
      vertex 94.2164 -7.33611 1.34909
    endloop
  endfacet
  facet normal 0.880403 0.000779821 0.474225
    outer loop
      vertex 94.956 -7.5 -0.0237144
      vertex 94.2164 -7.33611 1.34909
      vertex 94.5842 -7.45891 0.666468
    endloop
  endfacet
  facet normal 0.880375 0 0.474278
    outer loop
      vertex 91.4184 -0.783963 6.54293
      vertex 94.956 -7.5 -0.0237144
      vertex 94.956 7.5 -0.0237144
    endloop
  endfacet
  facet normal -0.000281319 0 -1
    outer loop
      vertex -94.9904 -7.5 -0.0177305
      vertex 94.8679 7.5 -0.0711413
      vertex 94.8679 -7.5 -0.0711413
    endloop
  endfacet
  facet normal -0.000281319 0 -1
    outer loop
      vertex 94.8679 7.5 -0.0711413
      vertex -94.9904 -7.5 -0.0177305
      vertex -94.9904 7.5 -0.0177305
    endloop
  endfacet
  facet normal 0 -1 0
    outer loop
      vertex 94.8679 -7.5 -0.0711413
      vertex -95.016 -7.5 0.0297284
      vertex -94.9904 -7.5 -0.0177305
    endloop
  endfacet
  facet normal 0 -1 0
    outer loop
      vertex -95.016 -7.5 0.0297284
      vertex 94.8679 -7.5 -0.0711413
      vertex 94.956 -7.5 -0.0237144
    endloop
  endfacet
  facet normal 1.67213e-05 0.998232 0.0594387
    outer loop
      vertex 94.5842 7.45891 0.666468
      vertex -95.016 7.5 0.0297284
      vertex -95.3878 7.45891 0.719911
    endloop
  endfacet
  facet normal 1.67213e-05 0.998232 0.0594387
    outer loop
      vertex -95.016 7.5 0.0297284
      vertex 94.5842 7.45891 0.666468
      vertex 94.956 7.5 -0.0237144
    endloop
  endfacet
  facet normal 0.00024422 -0.496268 0.868169
    outer loop
      vertex 91.8755 -3.75 5.69449
      vertex -97.8937 -4.40839 5.37152
      vertex 92.0782 -4.40839 5.31808
    endloop
  endfacet
  facet normal 0.000244264 -0.496278 0.868164
    outer loop
      vertex -97.8937 -4.40839 5.37152
      vertex 91.8755 -3.75 5.69449
      vertex -98.0965 -3.75 5.74794
    endloop
  endfacet
  facet normal 0.00027861 0.138073 0.990422
    outer loop
      vertex -98.4954 1.55934 6.48826
      vertex 91.4184 0.783963 6.54293
      vertex 91.4766 1.55934 6.43482
    endloop
  endfacet
  facet normal 0.000278662 0.138085 0.99042
    outer loop
      vertex 91.4184 0.783963 6.54293
      vertex -98.4954 1.55934 6.48826
      vertex -98.5536 0.783963 6.59638
    endloop
  endfacet
  facet normal 0.000112466 -0.916634 0.399727
    outer loop
      vertex -96.1152 -7.13292 2.07011
      vertex 93.5092 -6.85159 2.66189
      vertex -96.4628 -6.85159 2.71534
    endloop
  endfacet
  facet normal 0.000112446 -0.916632 0.399732
    outer loop
      vertex 93.5092 -6.85159 2.66189
      vertex -96.1152 -7.13292 2.07011
      vertex 93.8568 -7.13292 2.01667
    endloop
  endfacet
  facet normal 0.000229067 -0.580438 0.814304
    outer loop
      vertex 92.0782 -4.40839 5.31808
      vertex -97.6594 -5.01848 4.93658
      vertex 92.3126 -5.01848 4.88314
    endloop
  endfacet
  facet normal 0.000229068 -0.580439 0.814304
    outer loop
      vertex -97.6594 -5.01848 4.93658
      vertex 92.0782 -4.40839 5.31808
      vertex -97.8937 -4.40839 5.37152
    endloop
  endfacet
  facet normal 0.000190489 -0.735949 0.677037
    outer loop
      vertex -97.1068 -6.06763 3.91077
      vertex 92.5758 -5.57359 4.39443
      vertex -97.3962 -5.57359 4.44788
    endloop
  endfacet
  facet normal 0.000190456 -0.735943 0.677044
    outer loop
      vertex 92.5758 -5.57359 4.39443
      vertex -97.1068 -6.06763 3.91077
      vertex 92.8652 -6.06763 3.85733
    endloop
  endfacet
  facet normal 0.000266502 -0.320118 0.947378
    outer loop
      vertex 91.573 -2.31763 6.25594
      vertex -98.2656 -3.05052 6.0617
      vertex 91.7064 -3.05052 6.00826
    endloop
  endfacet
  facet normal 0.000266502 -0.320118 0.947378
    outer loop
      vertex -98.2656 -3.05052 6.0617
      vertex 91.573 -2.31763 6.25594
      vertex -98.399 -2.31763 6.30938
    endloop
  endfacet
  facet normal 8.19214e-05 0.956656 0.29122
    outer loop
      vertex 93.8568 7.13292 2.01667
      vertex -95.7556 7.33611 1.40253
      vertex -96.1152 7.13292 2.07011
    endloop
  endfacet
  facet normal 8.19214e-05 0.956656 0.29122
    outer loop
      vertex -95.7556 7.33611 1.40253
      vertex 93.8568 7.13292 2.01667
      vertex 94.2164 7.33611 1.34909
    endloop
  endfacet
  facet normal 0.000281058 0.0460814 0.998938
    outer loop
      vertex -98.5536 0.783963 6.59638
      vertex 91.3989 0 6.5791
      vertex 91.4184 0.783963 6.54293
    endloop
  endfacet
  facet normal 0.000281058 0.0460814 0.998938
    outer loop
      vertex 91.3989 0 6.5791
      vertex -98.5536 0.783963 6.59638
      vertex -98.5731 0 6.63255
    endloop
  endfacet
  facet normal 0.000256719 0.409232 0.91243
    outer loop
      vertex -98.0965 3.75 5.74794
      vertex 91.7064 3.05052 6.00826
      vertex 91.8755 3.75 5.69449
    endloop
  endfacet
  facet normal 0.000256672 0.409221 0.912435
    outer loop
      vertex 91.7064 3.05052 6.00826
      vertex -98.0965 3.75 5.74794
      vertex -98.2656 3.05052 6.0617
    endloop
  endfacet
  facet normal 0.000167003 0.804705 0.593675
    outer loop
      vertex 92.8652 6.06763 3.85733
      vertex -96.7946 6.49519 3.33114
      vertex -97.1068 6.06763 3.91077
    endloop
  endfacet
  facet normal 0.000167003 0.804705 0.593675
    outer loop
      vertex -96.7946 6.49519 3.33114
      vertex 92.8652 6.06763 3.85733
      vertex 93.1774 6.49519 3.2777
    endloop
  endfacet
  facet normal 4.98132e-05 -0.984197 0.177079
    outer loop
      vertex -95.3878 -7.45891 0.719911
      vertex 94.2164 -7.33611 1.34909
      vertex -95.7556 -7.33611 1.40253
    endloop
  endfacet
  facet normal 4.98158e-05 -0.984197 0.177079
    outer loop
      vertex 94.2164 -7.33611 1.34909
      vertex -95.3878 -7.45891 0.719911
      vertex 94.5842 -7.45891 0.666468
    endloop
  endfacet
  facet normal 0.00027861 -0.138073 0.990422
    outer loop
      vertex 91.4184 -0.783963 6.54293
      vertex -98.4954 -1.55934 6.48826
      vertex 91.4766 -1.55934 6.43482
    endloop
  endfacet
  facet normal 0.000278662 -0.138085 0.99042
    outer loop
      vertex -98.4954 -1.55934 6.48826
      vertex 91.4184 -0.783963 6.54293
      vertex -98.5536 -0.783963 6.59638
    endloop
  endfacet
  facet normal 0.000211192 0.660734 0.75062
    outer loop
      vertex -97.3962 5.57359 4.44788
      vertex 92.3126 5.01848 4.88314
      vertex 92.5758 5.57359 4.39443
    endloop
  endfacet
  facet normal 0.000211155 0.660726 0.750627
    outer loop
      vertex 92.3126 5.01848 4.88314
      vertex -97.3962 5.57359 4.44788
      vertex -97.6594 5.01848 4.93658
    endloop
  endfacet
  facet normal 0.000229067 0.580438 0.814304
    outer loop
      vertex -97.6594 5.01848 4.93658
      vertex 92.0782 4.40839 5.31808
      vertex 92.3126 5.01848 4.88314
    endloop
  endfacet
  facet normal 0.000229068 0.580439 0.814304
    outer loop
      vertex 92.0782 4.40839 5.31808
      vertex -97.6594 5.01848 4.93658
      vertex -97.8937 4.40839 5.37152
    endloop
  endfacet
  facet normal 0.000273792 0.229564 0.973293
    outer loop
      vertex -98.399 2.31763 6.30938
      vertex 91.4766 1.55934 6.43482
      vertex 91.573 2.31763 6.25594
    endloop
  endfacet
  facet normal 0.000273792 0.229564 0.973293
    outer loop
      vertex 91.4766 1.55934 6.43482
      vertex -98.399 2.31763 6.30938
      vertex -98.4954 1.55934 6.48826
    endloop
  endfacet
  facet normal 0.000256719 -0.409232 0.91243
    outer loop
      vertex 91.7064 -3.05052 6.00826
      vertex -98.0965 -3.75 5.74794
      vertex 91.8755 -3.75 5.69449
    endloop
  endfacet
  facet normal 0.000256672 -0.409221 0.912435
    outer loop
      vertex -98.0965 -3.75 5.74794
      vertex 91.7064 -3.05052 6.00826
      vertex -98.2656 -3.05052 6.0617
    endloop
  endfacet
  facet normal 1.67213e-05 -0.998232 0.0594387
    outer loop
      vertex -95.016 -7.5 0.0297284
      vertex 94.5842 -7.45891 0.666468
      vertex -95.3878 -7.45891 0.719911
    endloop
  endfacet
  facet normal 1.67213e-05 -0.998232 0.0594387
    outer loop
      vertex 94.5842 -7.45891 0.666468
      vertex -95.016 -7.5 0.0297284
      vertex 94.956 -7.5 -0.0237144
    endloop
  endfacet
  facet normal 0.000140926 0.865464 0.500971
    outer loop
      vertex 93.1774 6.49519 3.2777
      vertex -96.4628 6.85159 2.71534
      vertex -96.7946 6.49519 3.33114
    endloop
  endfacet
  facet normal 0.00014095 0.865467 0.500965
    outer loop
      vertex -96.4628 6.85159 2.71534
      vertex 93.1774 6.49519 3.2777
      vertex 93.5092 6.85159 2.66189
    endloop
  endfacet
  facet normal 0.000211192 -0.660734 0.75062
    outer loop
      vertex 92.3126 -5.01848 4.88314
      vertex -97.3962 -5.57359 4.44788
      vertex 92.5758 -5.57359 4.39443
    endloop
  endfacet
  facet normal 0.000211155 -0.660726 0.750627
    outer loop
      vertex -97.3962 -5.57359 4.44788
      vertex 92.3126 -5.01848 4.88314
      vertex -97.6594 -5.01848 4.93658
    endloop
  endfacet
  facet normal 0 1 -0
    outer loop
      vertex 94.8679 7.5 -0.0711413
      vertex -95.016 7.5 0.0297284
      vertex 94.956 7.5 -0.0237144
    endloop
  endfacet
  facet normal 0 1 0
    outer loop
      vertex -95.016 7.5 0.0297284
      vertex 94.8679 7.5 -0.0711413
      vertex -94.9904 7.5 -0.0177305
    endloop
  endfacet
  facet normal 0.000266502 0.320118 0.947378
    outer loop
      vertex -98.2656 3.05052 6.0617
      vertex 91.573 2.31763 6.25594
      vertex 91.7064 3.05052 6.00826
    endloop
  endfacet
  facet normal 0.000266502 0.320118 0.947378
    outer loop
      vertex 91.573 2.31763 6.25594
      vertex -98.2656 3.05052 6.0617
      vertex -98.399 2.31763 6.30938
    endloop
  endfacet
  facet normal 0.00024422 0.496268 0.868169
    outer loop
      vertex -97.8937 4.40839 5.37152
      vertex 91.8755 3.75 5.69449
      vertex 92.0782 4.40839 5.31808
    endloop
  endfacet
  facet normal 0.000244264 0.496278 0.868164
    outer loop
      vertex 91.8755 3.75 5.69449
      vertex -97.8937 4.40839 5.37152
      vertex -98.0965 3.75 5.74794
    endloop
  endfacet
  facet normal 0.000273792 -0.229564 0.973293
    outer loop
      vertex 91.4766 -1.55934 6.43482
      vertex -98.399 -2.31763 6.30938
      vertex 91.573 -2.31763 6.25594
    endloop
  endfacet
  facet normal 0.000273792 -0.229564 0.973293
    outer loop
      vertex -98.399 -2.31763 6.30938
      vertex 91.4766 -1.55934 6.43482
      vertex -98.4954 -1.55934 6.48826
    endloop
  endfacet
  facet normal 0.000281058 -0.0460814 0.998938
    outer loop
      vertex 91.3989 0 6.5791
      vertex -98.5536 -0.783963 6.59638
      vertex 91.4184 -0.783963 6.54293
    endloop
  endfacet
  facet normal 0.000281058 -0.0460814 0.998938
    outer loop
      vertex -98.5536 -0.783963 6.59638
      vertex 91.3989 0 6.5791
      vertex -98.5731 0 6.63255
    endloop
  endfacet
  facet normal 4.98132e-05 0.984197 0.177079
    outer loop
      vertex 94.2164 7.33611 1.34909
      vertex -95.3878 7.45891 0.719911
      vertex -95.7556 7.33611 1.40253
    endloop
  endfacet
  facet normal 4.98158e-05 0.984197 0.177079
    outer loop
      vertex -95.3878 7.45891 0.719911
      vertex 94.2164 7.33611 1.34909
      vertex 94.5842 7.45891 0.666468
    endloop
  endfacet
  facet normal 8.19214e-05 -0.956656 0.29122
    outer loop
      vertex -95.7556 -7.33611 1.40253
      vertex 93.8568 -7.13292 2.01667
      vertex -96.1152 -7.13292 2.07011
    endloop
  endfacet
  facet normal 8.19214e-05 -0.956656 0.29122
    outer loop
      vertex 93.8568 -7.13292 2.01667
      vertex -95.7556 -7.33611 1.40253
      vertex 94.2164 -7.33611 1.34909
    endloop
  endfacet
  facet normal 0.000140926 -0.865464 0.500971
    outer loop
      vertex -96.4628 -6.85159 2.71534
      vertex 93.1774 -6.49519 3.2777
      vertex -96.7946 -6.49519 3.33114
    endloop
  endfacet
  facet normal 0.00014095 -0.865467 0.500965
    outer loop
      vertex 93.1774 -6.49519 3.2777
      vertex -96.4628 -6.85159 2.71534
      vertex 93.5092 -6.85159 2.66189
    endloop
  endfacet
  facet normal 0.000112466 0.916634 0.399727
    outer loop
      vertex 93.5092 6.85159 2.66189
      vertex -96.1152 7.13292 2.07011
      vertex -96.4628 6.85159 2.71534
    endloop
  endfacet
  facet normal 0.000112446 0.916632 0.399732
    outer loop
      vertex -96.1152 7.13292 2.07011
      vertex 93.5092 6.85159 2.66189
      vertex 93.8568 7.13292 2.01667
    endloop
  endfacet
  facet normal 0.000167003 -0.804705 0.593675
    outer loop
      vertex -96.7946 -6.49519 3.33114
      vertex 92.8652 -6.06763 3.85733
      vertex -97.1068 -6.06763 3.91077
    endloop
  endfacet
  facet normal 0.000167003 -0.804705 0.593675
    outer loop
      vertex 92.8652 -6.06763 3.85733
      vertex -96.7946 -6.49519 3.33114
      vertex 93.1774 -6.49519 3.2777
    endloop
  endfacet
  facet normal -0.880072 -0.0105855 -0.474723
    outer loop
      vertex -94.9904 7.5 -0.0177305
      vertex -95.3878 7.45891 0.719911
      vertex -95.016 7.5 0.0297284
    endloop
  endfacet
  facet normal -0.880378 0.000447035 -0.474273
    outer loop
      vertex -94.9904 7.5 -0.0177305
      vertex -95.7556 7.33611 1.40253
      vertex -95.3878 7.45891 0.719911
    endloop
  endfacet
  facet normal -0.880331 -0.000523464 -0.47436
    outer loop
      vertex -94.9904 7.5 -0.0177305
      vertex -96.1152 7.13292 2.07011
      vertex -95.7556 7.33611 1.40253
    endloop
  endfacet
  facet normal -0.880365 -5.36129e-05 -0.474296
    outer loop
      vertex -94.9904 7.5 -0.0177305
      vertex -96.4628 6.85159 2.71534
      vertex -96.1152 7.13292 2.07011
    endloop
  endfacet
  facet normal -0.88039 0.000197395 -0.47425
    outer loop
      vertex -94.9904 7.5 -0.0177305
      vertex -96.7946 6.49519 3.33114
      vertex -96.4628 6.85159 2.71534
    endloop
  endfacet
  facet normal -0.880333 -0.000260212 -0.474356
    outer loop
      vertex -94.9904 7.5 -0.0177305
      vertex -97.1068 6.06763 3.91077
      vertex -96.7946 6.49519 3.33114
    endloop
  endfacet
  facet normal -0.880392 0.000126585 -0.474247
    outer loop
      vertex -94.9904 7.5 -0.0177305
      vertex -97.3962 5.57359 4.44788
      vertex -97.1068 6.06763 3.91077
    endloop
  endfacet
  facet normal -0.880331 -0.000209438 -0.474359
    outer loop
      vertex -94.9904 7.5 -0.0177305
      vertex -97.6594 5.01848 4.93658
      vertex -97.3962 5.57359 4.44788
    endloop
  endfacet
  facet normal -0.880369 -2.71414e-05 -0.474289
    outer loop
      vertex -94.9904 7.5 -0.0177305
      vertex -97.8937 4.40839 5.37152
      vertex -97.6594 5.01848 4.93658
    endloop
  endfacet
  facet normal -0.880383 2.94689e-05 -0.474263
    outer loop
      vertex -94.9904 7.5 -0.0177305
      vertex -98.0965 3.75 5.74794
      vertex -97.8937 4.40839 5.37152
    endloop
  endfacet
  facet normal -0.880409 0.000124815 -0.474215
    outer loop
      vertex -94.9904 7.5 -0.0177305
      vertex -98.2656 3.05052 6.0617
      vertex -98.0965 3.75 5.74794
    endloop
  endfacet
  facet normal -0.880354 -5.39493e-05 -0.474317
    outer loop
      vertex -94.9904 7.5 -0.0177305
      vertex -98.399 2.31763 6.30938
      vertex -98.2656 3.05052 6.0617
    endloop
  endfacet
  facet normal -0.880388 4.61906e-05 -0.474253
    outer loop
      vertex -94.9904 7.5 -0.0177305
      vertex -98.4954 1.55934 6.48826
      vertex -98.399 2.31763 6.30938
    endloop
  endfacet
  facet normal -0.880347 -6.23827e-05 -0.47433
    outer loop
      vertex -94.9904 7.5 -0.0177305
      vertex -98.5536 0.783963 6.59638
      vertex -98.4954 1.55934 6.48826
    endloop
  endfacet
  facet normal -0.880381 1.67819e-05 -0.474268
    outer loop
      vertex -94.9904 7.5 -0.0177305
      vertex -98.5731 0 6.63255
      vertex -98.5536 0.783963 6.59638
    endloop
  endfacet
  facet normal -0.880366 -1.51216e-05 -0.474296
    outer loop
      vertex -94.9904 7.5 -0.0177305
      vertex -98.5536 -0.783963 6.59638
      vertex -98.5731 0 6.63255
    endloop
  endfacet
  facet normal -0.880374 0 -0.474281
    outer loop
      vertex -94.9904 -7.5 -0.0177305
      vertex -98.5536 -0.783963 6.59638
      vertex -94.9904 7.5 -0.0177305
    endloop
  endfacet
  facet normal -0.880347 6.23827e-05 -0.47433
    outer loop
      vertex -98.5536 -0.783963 6.59638
      vertex -94.9904 -7.5 -0.0177305
      vertex -98.4954 -1.55934 6.48826
    endloop
  endfacet
  facet normal -0.880388 -4.61906e-05 -0.474253
    outer loop
      vertex -98.4954 -1.55934 6.48826
      vertex -94.9904 -7.5 -0.0177305
      vertex -98.399 -2.31763 6.30938
    endloop
  endfacet
  facet normal -0.880354 5.39493e-05 -0.474317
    outer loop
      vertex -98.399 -2.31763 6.30938
      vertex -94.9904 -7.5 -0.0177305
      vertex -98.2656 -3.05052 6.0617
    endloop
  endfacet
  facet normal -0.880409 -0.000124815 -0.474215
    outer loop
      vertex -98.2656 -3.05052 6.0617
      vertex -94.9904 -7.5 -0.0177305
      vertex -98.0965 -3.75 5.74794
    endloop
  endfacet
  facet normal -0.880383 -2.94689e-05 -0.474263
    outer loop
      vertex -98.0965 -3.75 5.74794
      vertex -94.9904 -7.5 -0.0177305
      vertex -97.8937 -4.40839 5.37152
    endloop
  endfacet
  facet normal -0.880369 2.71414e-05 -0.474289
    outer loop
      vertex -97.8937 -4.40839 5.37152
      vertex -94.9904 -7.5 -0.0177305
      vertex -97.6594 -5.01848 4.93658
    endloop
  endfacet
  facet normal -0.880331 0.000209438 -0.474359
    outer loop
      vertex -97.6594 -5.01848 4.93658
      vertex -94.9904 -7.5 -0.0177305
      vertex -97.3962 -5.57359 4.44788
    endloop
  endfacet
  facet normal -0.880392 -0.000126585 -0.474247
    outer loop
      vertex -97.3962 -5.57359 4.44788
      vertex -94.9904 -7.5 -0.0177305
      vertex -97.1068 -6.06763 3.91077
    endloop
  endfacet
  facet normal -0.880333 0.000260212 -0.474356
    outer loop
      vertex -97.1068 -6.06763 3.91077
      vertex -94.9904 -7.5 -0.0177305
      vertex -96.7946 -6.49519 3.33114
    endloop
  endfacet
  facet normal -0.88039 -0.000197395 -0.47425
    outer loop
      vertex -96.7946 -6.49519 3.33114
      vertex -94.9904 -7.5 -0.0177305
      vertex -96.4628 -6.85159 2.71534
    endloop
  endfacet
  facet normal -0.880365 5.36129e-05 -0.474296
    outer loop
      vertex -96.4628 -6.85159 2.71534
      vertex -94.9904 -7.5 -0.0177305
      vertex -96.1152 -7.13292 2.07011
    endloop
  endfacet
  facet normal -0.880331 0.000523464 -0.47436
    outer loop
      vertex -96.1152 -7.13292 2.07011
      vertex -94.9904 -7.5 -0.0177305
      vertex -95.7556 -7.33611 1.40253
    endloop
  endfacet
  facet normal -0.880378 -0.000447035 -0.474273
    outer loop
      vertex -95.7556 -7.33611 1.40253
      vertex -94.9904 -7.5 -0.0177305
      vertex -95.3878 -7.45891 0.719911
    endloop
  endfacet
  facet normal -0.880072 0.0105855 -0.474723
    outer loop
      vertex -95.3878 -7.45891 0.719911
      vertex -94.9904 -7.5 -0.0177305
      vertex -95.016 -7.5 0.0297284
    endloop
  endfacet
endsolid OpenSCAD_Model
