solid OpenSCAD_Model
  facet normal -0.000272204 0.252302 0.967648
    outer loop
      vertex 98.399 2.31763 6.30938
      vertex -91.5201 1.94114 6.35412
      vertex 98.4519 1.94114 6.40756
    endloop
  endfacet
  facet normal -0.000272204 0.252302 0.967648
    outer loop
      vertex -91.5201 1.94114 6.35412
      vertex 98.399 2.31763 6.30938
      vertex -91.573 2.31763 6.25594
    endloop
  endfacet
  facet normal -8.3664e-06 0.999558 0.0297398
    outer loop
      vertex 95.016 7.5 0.0297284
      vertex -94.7698 7.48972 0.32185
      vertex 95.2022 7.48972 0.375293
    endloop
  endfacet
  facet normal -8.36638e-06 0.999558 0.0297398
    outer loop
      vertex -94.7698 7.48972 0.32185
      vertex 95.016 7.5 0.0297284
      vertex -94.956 7.5 -0.0237144
    endloop
  endfacet
  facet normal -0.000259372 0.387111 0.922033
    outer loop
      vertex 98.1854 3.40493 5.91288
      vertex -91.7064 3.05052 6.00826
      vertex 98.2656 3.05052 6.0617
    endloop
  endfacet
  facet normal -0.000259372 0.387111 0.922033
    outer loop
      vertex -91.7064 3.05052 6.00826
      vertex 98.1854 3.40493 5.91288
      vertex -91.7866 3.40493 5.85944
    endloop
  endfacet
  facet normal -5.79594e-05 -0.978548 0.206018
    outer loop
      vertex -94.2164 -7.33611 1.34909
      vertex 42.3127 -7.40766 1.04765
      vertex 42.3127 -7.33611 1.3875
    endloop
  endfacet
  facet normal -5.79573e-05 -0.978548 0.206019
    outer loop
      vertex 42.3127 -7.40766 1.04765
      vertex -94.2164 -7.33611 1.34909
      vertex -94.3995 -7.40766 1.00919
    endloop
  endfacet
  facet normal -5.79771e-05 -0.978547 0.206024
    outer loop
      vertex 77.3127 -7.33611 1.39734
      vertex 95.5725 -7.40766 1.06264
      vertex 95.7556 -7.33611 1.40253
    endloop
  endfacet
  facet normal -5.79941e-05 -0.978547 0.206024
    outer loop
      vertex 95.5725 -7.40766 1.06264
      vertex 77.3127 -7.33611 1.39734
      vertex 77.3127 -7.40766 1.0575
    endloop
  endfacet
  facet normal 0 1 0
    outer loop
      vertex -94.8679 7.5 -0.0711413
      vertex 95.016 7.5 0.0297284
      vertex 94.9904 7.5 -0.0177305
    endloop
  endfacet
  facet normal 0 1 0
    outer loop
      vertex 95.016 7.5 0.0297284
      vertex -94.8679 7.5 -0.0711413
      vertex -94.956 7.5 -0.0237144
    endloop
  endfacet
  facet normal -0.00026856 0.297586 0.954695
    outer loop
      vertex 98.3368 2.68776 6.19399
      vertex -91.573 2.31763 6.25594
      vertex 98.399 2.31763 6.30938
    endloop
  endfacet
  facet normal -0.00026856 0.297586 0.954695
    outer loop
      vertex -91.573 2.31763 6.25594
      vertex 98.3368 2.68776 6.19399
      vertex -91.6352 2.68776 6.14055
    endloop
  endfacet
  facet normal 0.00028132 0 -1
    outer loop
      vertex 42.3127 -7.5 -0.0325497
      vertex -94.8679 -7.5 -0.0711413
      vertex 42.3127 4.4 -0.0325497
    endloop
  endfacet
  facet normal 0.000281321 0 -1
    outer loop
      vertex 77.3127 4.4 -0.0227036
      vertex 94.9904 -7.5 -0.0177305
      vertex 77.3127 -7.5 -0.0227036
    endloop
  endfacet
  facet normal 0.000281321 0 -1
    outer loop
      vertex 94.9904 -7.5 -0.0177305
      vertex 77.3127 4.4 -0.0227036
      vertex 94.9904 7.5 -0.0177305
    endloop
  endfacet
  facet normal 0.000281317 1.93367e-08 -1
    outer loop
      vertex 42.3127 4.4 -0.0325497
      vertex 94.9904 7.5 -0.0177305
      vertex 77.3127 4.4 -0.0227036
    endloop
  endfacet
  facet normal 0.000281319 -1.69563e-08 -1
    outer loop
      vertex 42.3127 4.4 -0.0325497
      vertex -94.8679 7.5 -0.0711413
      vertex 94.9904 7.5 -0.0177305
    endloop
  endfacet
  facet normal 0.00028132 0 -1
    outer loop
      vertex -94.8679 7.5 -0.0711413
      vertex 42.3127 4.4 -0.0325497
      vertex -94.8679 -7.5 -0.0711413
    endloop
  endfacet
  facet normal -0.000253808 -0.431203 0.902255
    outer loop
      vertex -91.7866 -3.40493 5.85944
      vertex 98.0965 -3.75 5.74794
      vertex 98.1854 -3.40493 5.91288
    endloop
  endfacet
  facet normal -0.000253853 -0.431225 0.902245
    outer loop
      vertex 98.0965 -3.75 5.74794
      vertex -91.7866 -3.40493 5.85944
      vertex -91.8755 -3.75 5.69449
    endloop
  endfacet
  facet normal -0.000173117 0.788208 0.615409
    outer loop
      vertex 96.9533 6.29003 3.62588
      vertex -92.8652 6.06763 3.85733
      vertex 97.1068 6.06763 3.91077
    endloop
  endfacet
  facet normal -0.000173117 0.788208 0.615409
    outer loop
      vertex -92.8652 6.06763 3.85733
      vertex 96.9533 6.29003 3.62588
      vertex -93.0187 6.29003 3.57244
    endloop
  endfacet
  facet normal -0.000279487 0.115113 0.993352
    outer loop
      vertex 98.5293 1.17326 6.55126
      vertex -91.4184 0.783963 6.54293
      vertex 98.5536 0.783963 6.59638
    endloop
  endfacet
  facet normal -0.000279487 0.115113 0.993352
    outer loop
      vertex -91.4184 0.783963 6.54293
      vertex 98.5293 1.17326 6.55126
      vertex -91.4427 1.17326 6.49781
    endloop
  endfacet
  facet normal -0.000173174 -0.788208 0.615409
    outer loop
      vertex 77.3127 -6.06763 3.9052
      vertex 96.9533 -6.29003 3.62588
      vertex 97.1068 -6.06763 3.91077
    endloop
  endfacet
  facet normal -0.000172964 -0.788201 0.615418
    outer loop
      vertex 96.9533 -6.29003 3.62588
      vertex 77.3127 -6.06763 3.9052
      vertex 77.3127 -6.29003 3.62036
    endloop
  endfacet
  facet normal -0.000173092 -0.788201 0.615418
    outer loop
      vertex -92.8652 -6.06763 3.85733
      vertex 42.3127 -6.29003 3.61051
      vertex 42.3127 -6.06763 3.89535
    endloop
  endfacet
  facet normal -0.00017312 -0.788208 0.615409
    outer loop
      vertex 42.3127 -6.29003 3.61051
      vertex -92.8652 -6.06763 3.85733
      vertex -93.0187 -6.29003 3.57244
    endloop
  endfacet
  facet normal -0.000147683 0.851107 0.524993
    outer loop
      vertex 96.6309 6.68255 3.02735
      vertex -93.1774 6.49519 3.2777
      vertex 96.7946 6.49519 3.33114
    endloop
  endfacet
  facet normal -0.000147707 0.851114 0.52498
    outer loop
      vertex -93.1774 6.49519 3.2777
      vertex 96.6309 6.68255 3.02735
      vertex -93.3411 6.68255 2.9739
    endloop
  endfacet
  facet normal -0.000119795 0.904829 0.425776
    outer loop
      vertex 96.2908 7.00185 2.39597
      vertex -93.5092 6.85159 2.66189
      vertex 96.4628 6.85159 2.71534
    endloop
  endfacet
  facet normal -0.000119795 0.904829 0.425776
    outer loop
      vertex -93.5092 6.85159 2.66189
      vertex 96.2908 7.00185 2.39597
      vertex -93.6812 7.00185 2.34252
    endloop
  endfacet
  facet normal -4.16163e-05 0.989 0.147913
    outer loop
      vertex 95.3878 7.45891 0.719911
      vertex -94.3995 7.40766 1.00919
      vertex 95.5725 7.40766 1.06264
    endloop
  endfacet
  facet normal -4.16117e-05 0.989 0.147916
    outer loop
      vertex -94.3995 7.40766 1.00919
      vertex 95.3878 7.45891 0.719911
      vertex -94.5842 7.45891 0.666468
    endloop
  endfacet
  facet normal -0.00020628 0.680055 0.733161
    outer loop
      vertex 97.3962 5.57359 4.44788
      vertex -92.4408 5.3033 4.64518
      vertex 97.5312 5.3033 4.69863
    endloop
  endfacet
  facet normal -0.00020628 0.680055 0.733161
    outer loop
      vertex -92.4408 5.3033 4.64518
      vertex 97.3962 5.57359 4.44788
      vertex -92.5758 5.57359 4.39443
    endloop
  endfacet
  facet normal -0.000160725 0.820703 0.571354
    outer loop
      vertex 96.7946 6.49519 3.33114
      vertex -93.0187 6.29003 3.57244
      vertex 96.9533 6.29003 3.62588
    endloop
  endfacet
  facet normal -0.000160725 0.820703 0.571354
    outer loop
      vertex -93.0187 6.29003 3.57244
      vertex 96.7946 6.49519 3.33114
      vertex -93.1774 6.49519 3.2777
    endloop
  endfacet
  facet normal -0.000277686 0.161025 0.98695
    outer loop
      vertex 98.4954 1.55934 6.48826
      vertex -91.4427 1.17326 6.49781
      vertex 98.5293 1.17326 6.55126
    endloop
  endfacet
  facet normal -0.000277635 0.161 0.986954
    outer loop
      vertex -91.4427 1.17326 6.49781
      vertex 98.4954 1.55934 6.48826
      vertex -91.4766 1.55934 6.43482
    endloop
  endfacet
  facet normal -0.000184858 -0.753791 0.657114
    outer loop
      vertex 77.3127 -5.82859 4.17941
      vertex 97.1068 -6.06763 3.91077
      vertex 97.2546 -5.82859 4.18502
    endloop
  endfacet
  facet normal -0.000184909 -0.753793 0.657112
    outer loop
      vertex 97.1068 -6.06763 3.91077
      vertex 77.3127 -5.82859 4.17941
      vertex 77.3127 -6.06763 3.9052
    endloop
  endfacet
  facet normal -0.000184875 -0.753793 0.657112
    outer loop
      vertex -92.7174 -5.82859 4.13157
      vertex 42.3127 -6.06763 3.89535
      vertex 42.3127 -5.82859 4.16956
    endloop
  endfacet
  facet normal -0.000184823 -0.753779 0.657128
    outer loop
      vertex 42.3127 -6.06763 3.89535
      vertex -92.7174 -5.82859 4.13157
      vertex -92.8652 -6.06763 3.85733
    endloop
  endfacet
  facet normal -5.79556e-05 0.978547 0.206024
    outer loop
      vertex 95.5725 7.40766 1.06264
      vertex -94.2164 7.33611 1.34909
      vertex 95.7556 7.33611 1.40253
    endloop
  endfacet
  facet normal -5.79648e-05 0.978548 0.206019
    outer loop
      vertex -94.2164 7.33611 1.34909
      vertex 95.5725 7.40766 1.06264
      vertex -94.3995 7.40766 1.00919
    endloop
  endfacet
  facet normal -0.000240687 0.517623 0.855609
    outer loop
      vertex 97.8937 4.40839 5.37152
      vertex -91.9728 4.08479 5.51388
      vertex 97.9992 4.08479 5.56732
    endloop
  endfacet
  facet normal -0.000240687 0.517623 0.855609
    outer loop
      vertex -91.9728 4.08479 5.51388
      vertex 97.8937 4.40839 5.37152
      vertex -92.0782 4.40839 5.31808
    endloop
  endfacet
  facet normal -0.000215894 0.641081 0.767473
    outer loop
      vertex 97.5312 5.3033 4.69863
      vertex -92.3126 5.01848 4.88314
      vertex 97.6594 5.01848 4.93658
    endloop
  endfacet
  facet normal -0.00021593 0.641097 0.76746
    outer loop
      vertex -92.3126 5.01848 4.88314
      vertex 97.5312 5.3033 4.69863
      vertex -92.4408 5.3033 4.64518
    endloop
  endfacet
  facet normal -0.000134018 -0.879219 0.476418
    outer loop
      vertex -93.3411 -6.68255 2.9739
      vertex 42.3127 -6.85159 2.7001
      vertex 42.3127 -6.68255 3.01206
    endloop
  endfacet
  facet normal -0.000134027 -0.879221 0.476414
    outer loop
      vertex 42.3127 -6.85159 2.7001
      vertex -93.3411 -6.68255 2.9739
      vertex -93.5092 -6.85159 2.66189
    endloop
  endfacet
  facet normal -0.000134158 -0.879221 0.476414
    outer loop
      vertex 77.3127 -6.68255 3.02191
      vertex 96.4628 -6.85159 2.71534
      vertex 96.6309 -6.68255 3.02735
    endloop
  endfacet
  facet normal -0.000134093 -0.879219 0.476418
    outer loop
      vertex 96.4628 -6.85159 2.71534
      vertex 77.3127 -6.68255 3.02191
      vertex 77.3127 -6.85159 2.70995
    endloop
  endfacet
  facet normal -0.000275226 0.206768 0.97839
    outer loop
      vertex 98.4519 1.94114 6.40756
      vertex -91.4766 1.55934 6.43482
      vertex 98.4954 1.55934 6.48826
    endloop
  endfacet
  facet normal -0.000275226 0.206768 0.97839
    outer loop
      vertex -91.4766 1.55934 6.43482
      vertex 98.4519 1.94114 6.40756
      vertex -91.5201 1.94114 6.35412
    endloop
  endfacet
  facet normal -2.50554e-05 -0.996026 0.0890616
    outer loop
      vertex 77.3127 -7.45891 0.714826
      vertex 95.2022 -7.48972 0.375293
      vertex 95.3878 -7.45891 0.719911
    endloop
  endfacet
  facet normal -2.50564e-05 -0.996026 0.0890615
    outer loop
      vertex 95.2022 -7.48972 0.375293
      vertex 77.3127 -7.45891 0.714826
      vertex 77.3127 -7.48972 0.37026
    endloop
  endfacet
  facet normal -2.50549e-05 -0.996026 0.0890615
    outer loop
      vertex -94.5842 -7.45891 0.666468
      vertex 42.3127 -7.48972 0.360414
      vertex 42.3127 -7.45891 0.70498
    endloop
  endfacet
  facet normal -2.50548e-05 -0.996026 0.0890616
    outer loop
      vertex 42.3127 -7.48972 0.360414
      vertex -94.5842 -7.45891 0.666468
      vertex -94.7698 -7.48972 0.32185
    endloop
  endfacet
  facet normal -0.000195901 -0.717704 0.696349
    outer loop
      vertex 77.3127 -5.57359 4.44223
      vertex 97.2546 -5.82859 4.18502
      vertex 97.3962 -5.57359 4.44788
    endloop
  endfacet
  facet normal -0.000195895 -0.717703 0.696349
    outer loop
      vertex 97.2546 -5.82859 4.18502
      vertex 77.3127 -5.57359 4.44223
      vertex 77.3127 -5.82859 4.17941
    endloop
  endfacet
  facet normal -0.000195913 -0.717703 0.696349
    outer loop
      vertex -92.5758 -5.57359 4.39443
      vertex 42.3127 -5.82859 4.16956
      vertex 42.3127 -5.57359 4.43238
    endloop
  endfacet
  facet normal -0.000195914 -0.717704 0.696349
    outer loop
      vertex 42.3127 -5.82859 4.16956
      vertex -92.5758 -5.57359 4.39443
      vertex -92.7174 -5.82859 4.13157
    endloop
  endfacet
  facet normal -0.000280632 -0.0691058 0.997609
    outer loop
      vertex -91.4038 -0.392519 6.57006
      vertex 98.5536 -0.783963 6.59638
      vertex 98.5682 -0.392519 6.6235
    endloop
  endfacet
  facet normal -0.000280684 -0.0691312 0.997608
    outer loop
      vertex 98.5536 -0.783963 6.59638
      vertex -91.4038 -0.392519 6.57006
      vertex -91.4184 -0.783963 6.54293
    endloop
  endfacet
  facet normal -0.000259372 -0.387111 0.922033
    outer loop
      vertex -91.7064 -3.05052 6.00826
      vertex 98.1854 -3.40493 5.91288
      vertex 98.2656 -3.05052 6.0617
    endloop
  endfacet
  facet normal -0.000259372 -0.387111 0.922033
    outer loop
      vertex 98.1854 -3.40493 5.91288
      vertex -91.7064 -3.05052 6.00826
      vertex -91.7866 -3.40493 5.85944
    endloop
  endfacet
  facet normal -0.000247628 0.474754 0.880118
    outer loop
      vertex 97.9992 4.08479 5.56732
      vertex -91.8755 3.75 5.69449
      vertex 98.0965 3.75 5.74794
    endloop
  endfacet
  facet normal -0.000247584 0.474734 0.880129
    outer loop
      vertex -91.8755 3.75 5.69449
      vertex 97.9992 4.08479 5.56732
      vertex -91.9728 4.08479 5.51388
    endloop
  endfacet
  facet normal -0.000264285 -0.34256 0.939496
    outer loop
      vertex -91.6352 -2.68776 6.14055
      vertex 98.2656 -3.05052 6.0617
      vertex 98.3368 -2.68776 6.19399
    endloop
  endfacet
  facet normal -0.000264285 -0.34256 0.939496
    outer loop
      vertex 98.2656 -3.05052 6.0617
      vertex -91.6352 -2.68776 6.14055
      vertex -91.7064 -3.05052 6.00826
    endloop
  endfacet
  facet normal -0.000281283 0.0230466 0.999734
    outer loop
      vertex 98.5682 0.392519 6.6235
      vertex -91.3989 0 6.5791
      vertex 98.5731 0 6.63255
    endloop
  endfacet
  facet normal -0.00028123 0.0230211 0.999735
    outer loop
      vertex -91.3989 0 6.5791
      vertex 98.5682 0.392519 6.6235
      vertex -91.4038 0.392519 6.57006
    endloop
  endfacet
  facet normal -7.40341e-05 -0.964755 0.263149
    outer loop
      vertex -94.0353 -7.24444 1.68522
      vertex 42.3127 -7.33611 1.3875
      vertex 42.3127 -7.24444 1.72358
    endloop
  endfacet
  facet normal -7.40324e-05 -0.964755 0.26315
    outer loop
      vertex 42.3127 -7.33611 1.3875
      vertex -94.0353 -7.24444 1.68522
      vertex -94.2164 -7.33611 1.34909
    endloop
  endfacet
  facet normal -7.40391e-05 -0.964755 0.26315
    outer loop
      vertex 77.3127 -7.24444 1.73342
      vertex 95.7556 -7.33611 1.40253
      vertex 95.9367 -7.24444 1.73866
    endloop
  endfacet
  facet normal -7.40525e-05 -0.964755 0.263149
    outer loop
      vertex 95.7556 -7.33611 1.40253
      vertex 77.3127 -7.24444 1.73342
      vertex 77.3127 -7.33611 1.39734
    endloop
  endfacet
  facet normal -2.50548e-05 0.996026 0.0890616
    outer loop
      vertex 95.2022 7.48972 0.375293
      vertex -94.5842 7.45891 0.666468
      vertex 95.3878 7.45891 0.719911
    endloop
  endfacet
  facet normal -2.50548e-05 0.996026 0.0890616
    outer loop
      vertex -94.5842 7.45891 0.666468
      vertex 95.2022 7.48972 0.375293
      vertex -94.7698 7.48972 0.32185
    endloop
  endfacet
  facet normal -0.000224852 0.600909 0.799317
    outer loop
      vertex 97.6594 5.01848 4.93658
      vertex -92.1916 4.7199 5.10764
      vertex 97.7804 4.7199 5.16108
    endloop
  endfacet
  facet normal -0.000224852 0.600909 0.799317
    outer loop
      vertex -92.1916 4.7199 5.10764
      vertex 97.6594 5.01848 4.93658
      vertex -92.3126 5.01848 4.88314
    endloop
  endfacet
  facet normal -0.000253808 0.431203 0.902255
    outer loop
      vertex 98.0965 3.75 5.74794
      vertex -91.7866 3.40493 5.85944
      vertex 98.1854 3.40493 5.91288
    endloop
  endfacet
  facet normal -0.000253853 0.431225 0.902245
    outer loop
      vertex -91.7866 3.40493 5.85944
      vertex 98.0965 3.75 5.74794
      vertex -91.8755 3.75 5.69449
    endloop
  endfacet
  facet normal -0.000247628 -0.474754 0.880118
    outer loop
      vertex -91.8755 -3.75 5.69449
      vertex 97.9992 -4.08479 5.56732
      vertex 98.0965 -3.75 5.74794
    endloop
  endfacet
  facet normal -0.000247584 -0.474734 0.880129
    outer loop
      vertex 97.9992 -4.08479 5.56732
      vertex -91.8755 -3.75 5.69449
      vertex -91.9728 -4.08479 5.51388
    endloop
  endfacet
  facet normal -8.97301e-05 -0.947776 0.318938
    outer loop
      vertex -93.8568 -7.13292 2.01667
      vertex 42.3127 -7.24444 1.72358
      vertex 42.3127 -7.13292 2.05498
    endloop
  endfacet
  facet normal -8.97296e-05 -0.947776 0.318938
    outer loop
      vertex 42.3127 -7.24444 1.72358
      vertex -93.8568 -7.13292 2.01667
      vertex -94.0353 -7.24444 1.68522
    endloop
  endfacet
  facet normal -8.97318e-05 -0.947776 0.318938
    outer loop
      vertex 77.3127 -7.13292 2.06482
      vertex 95.9367 -7.24444 1.73866
      vertex 96.1152 -7.13292 2.07011
    endloop
  endfacet
  facet normal -8.97355e-05 -0.947776 0.318938
    outer loop
      vertex 95.9367 -7.24444 1.73866
      vertex 77.3127 -7.13292 2.06482
      vertex 77.3127 -7.24444 1.73342
    endloop
  endfacet
  facet normal -8.36693e-06 -0.999558 0.0297398
    outer loop
      vertex 77.3127 -7.48972 0.37026
      vertex 95.016 -7.5 0.0297284
      vertex 95.2022 -7.48972 0.375293
    endloop
  endfacet
  facet normal -8.36641e-06 -0.999558 0.0297398
    outer loop
      vertex 95.016 -7.5 0.0297284
      vertex 77.3127 -7.48972 0.37026
      vertex 77.3127 -7.5 0.0247481
    endloop
  endfacet
  facet normal -8.36639e-06 -0.999558 0.0297398
    outer loop
      vertex -94.7698 -7.48972 0.32185
      vertex 42.3127 -7.5 0.014902
      vertex 42.3127 -7.48972 0.360414
    endloop
  endfacet
  facet normal -8.36639e-06 -0.999558 0.0297398
    outer loop
      vertex 42.3127 -7.5 0.014902
      vertex -94.7698 -7.48972 0.32185
      vertex -94.956 -7.5 -0.0237144
    endloop
  endfacet
  facet normal -0.47401 0 -0.880519
    outer loop
      vertex -94.956 -7.5 -0.0237144
      vertex -94.8679 7.5 -0.0711413
      vertex -94.8679 -7.5 -0.0711413
    endloop
  endfacet
  facet normal -0.47401 0 -0.880519
    outer loop
      vertex -94.8679 7.5 -0.0711413
      vertex -94.956 -7.5 -0.0237144
      vertex -94.956 7.5 -0.0237144
    endloop
  endfacet
  facet normal -0.000224852 -0.600909 0.799317
    outer loop
      vertex -92.1916 -4.7199 5.10764
      vertex 97.6594 -5.01848 4.93658
      vertex 97.7804 -4.7199 5.16108
    endloop
  endfacet
  facet normal -0.000224852 -0.600909 0.799317
    outer loop
      vertex 97.6594 -5.01848 4.93658
      vertex -92.1916 -4.7199 5.10764
      vertex -92.3126 -5.01848 4.88314
    endloop
  endfacet
  facet normal -0.000105008 0.927743 0.373221
    outer loop
      vertex 96.1152 7.13292 2.07011
      vertex -93.6812 7.00185 2.34252
      vertex 96.2908 7.00185 2.39597
    endloop
  endfacet
  facet normal -0.000104991 0.927739 0.37323
    outer loop
      vertex -93.6812 7.00185 2.34252
      vertex 96.1152 7.13292 2.07011
      vertex -93.8568 7.13292 2.01667
    endloop
  endfacet
  facet normal -0.000134043 0.879221 0.476414
    outer loop
      vertex 96.4628 6.85159 2.71534
      vertex -93.3411 6.68255 2.9739
      vertex 96.6309 6.68255 3.02735
    endloop
  endfacet
  facet normal -0.000134043 0.879221 0.476414
    outer loop
      vertex -93.3411 6.68255 2.9739
      vertex 96.4628 6.85159 2.71534
      vertex -93.5092 6.85159 2.66189
    endloop
  endfacet
  facet normal -0.000280632 0.0691058 0.997609
    outer loop
      vertex 98.5536 0.783963 6.59638
      vertex -91.4038 0.392519 6.57006
      vertex 98.5682 0.392519 6.6235
    endloop
  endfacet
  facet normal -0.000280684 0.0691312 0.997608
    outer loop
      vertex -91.4038 0.392519 6.57006
      vertex 98.5536 0.783963 6.59638
      vertex -91.4184 0.783963 6.54293
    endloop
  endfacet
  facet normal -0.000184884 0.753791 0.657114
    outer loop
      vertex 97.1068 6.06763 3.91077
      vertex -92.7174 5.82859 4.13157
      vertex 97.2546 5.82859 4.18502
    endloop
  endfacet
  facet normal -0.000184853 0.753779 0.657128
    outer loop
      vertex -92.7174 5.82859 4.13157
      vertex 97.1068 6.06763 3.91077
      vertex -92.8652 6.06763 3.85733
    endloop
  endfacet
  facet normal -0.000233111 -0.559727 0.828677
    outer loop
      vertex -92.0782 -4.40839 5.31808
      vertex 97.7804 -4.7199 5.16108
      vertex 97.8937 -4.40839 5.37152
    endloop
  endfacet
  facet normal -0.000233111 -0.559727 0.828677
    outer loop
      vertex 97.7804 -4.7199 5.16108
      vertex -92.0782 -4.40839 5.31808
      vertex -92.1916 -4.7199 5.10764
    endloop
  endfacet
  facet normal -0.000119782 -0.904828 0.425778
    outer loop
      vertex -93.5092 -6.85159 2.66189
      vertex 42.3127 -7.00185 2.38078
      vertex 42.3127 -6.85159 2.7001
    endloop
  endfacet
  facet normal -0.000119786 -0.904829 0.425776
    outer loop
      vertex 42.3127 -7.00185 2.38078
      vertex -93.5092 -6.85159 2.66189
      vertex -93.6812 -7.00185 2.34252
    endloop
  endfacet
  facet normal -0.000119839 -0.904829 0.425776
    outer loop
      vertex 77.3127 -6.85159 2.70995
      vertex 96.2908 -7.00185 2.39597
      vertex 96.4628 -6.85159 2.71534
    endloop
  endfacet
  facet normal -0.000119804 -0.904828 0.425778
    outer loop
      vertex 96.2908 -7.00185 2.39597
      vertex 77.3127 -6.85159 2.70995
      vertex 77.3127 -7.00185 2.39063
    endloop
  endfacet
  facet normal -0.000281283 -0.0230466 0.999734
    outer loop
      vertex -91.3989 0 6.5791
      vertex 98.5682 -0.392519 6.6235
      vertex 98.5731 0 6.63255
    endloop
  endfacet
  facet normal -0.00028123 -0.0230211 0.999735
    outer loop
      vertex 98.5682 -0.392519 6.6235
      vertex -91.3989 0 6.5791
      vertex -91.4038 -0.392519 6.57006
    endloop
  endfacet
  facet normal -8.97187e-05 0.947776 0.318938
    outer loop
      vertex 95.9367 7.24444 1.73866
      vertex -93.8568 7.13292 2.01667
      vertex 96.1152 7.13292 2.07011
    endloop
  endfacet
  facet normal -8.97187e-05 0.947776 0.318938
    outer loop
      vertex -93.8568 7.13292 2.01667
      vertex 95.9367 7.24444 1.73866
      vertex -94.0353 7.24444 1.68522
    endloop
  endfacet
  facet normal -4.16363e-05 -0.989 0.147913
    outer loop
      vertex 77.3127 -7.40766 1.0575
      vertex 95.3878 -7.45891 0.719911
      vertex 95.5725 -7.40766 1.06264
    endloop
  endfacet
  facet normal -4.16121e-05 -0.989 0.147914
    outer loop
      vertex 95.3878 -7.45891 0.719911
      vertex 77.3127 -7.40766 1.0575
      vertex 77.3127 -7.45891 0.714826
    endloop
  endfacet
  facet normal -4.16118e-05 -0.989 0.147916
    outer loop
      vertex -94.3995 -7.40766 1.00919
      vertex 42.3127 -7.45891 0.70498
      vertex 42.3127 -7.40766 1.04765
    endloop
  endfacet
  facet normal -4.16118e-05 -0.989 0.147916
    outer loop
      vertex 42.3127 -7.45891 0.70498
      vertex -94.3995 -7.40766 1.00919
      vertex -94.5842 -7.45891 0.666468
    endloop
  endfacet
  facet normal -0.000275226 -0.206768 0.97839
    outer loop
      vertex -91.4766 -1.55934 6.43482
      vertex 98.4519 -1.94114 6.40756
      vertex 98.4954 -1.55934 6.48826
    endloop
  endfacet
  facet normal -0.000275226 -0.206768 0.97839
    outer loop
      vertex 98.4519 -1.94114 6.40756
      vertex -91.4766 -1.55934 6.43482
      vertex -91.5201 -1.94114 6.35412
    endloop
  endfacet
  facet normal -7.40252e-05 0.964755 0.26315
    outer loop
      vertex 95.7556 7.33611 1.40253
      vertex -94.0353 7.24444 1.68522
      vertex 95.9367 7.24444 1.73866
    endloop
  endfacet
  facet normal -7.40252e-05 0.964755 0.26315
    outer loop
      vertex -94.0353 7.24444 1.68522
      vertex 95.7556 7.33611 1.40253
      vertex -94.2164 7.33611 1.34909
    endloop
  endfacet
  facet normal -0.000277686 -0.161025 0.98695
    outer loop
      vertex -91.4427 -1.17326 6.49781
      vertex 98.4954 -1.55934 6.48826
      vertex 98.5293 -1.17326 6.55126
    endloop
  endfacet
  facet normal -0.000277635 -0.161 0.986954
    outer loop
      vertex 98.4954 -1.55934 6.48826
      vertex -91.4427 -1.17326 6.49781
      vertex -91.4766 -1.55934 6.43482
    endloop
  endfacet
  facet normal -0.000105003 -0.927738 0.373231
    outer loop
      vertex -93.6812 -7.00185 2.34252
      vertex 42.3127 -7.13292 2.05498
      vertex 42.3127 -7.00185 2.38078
    endloop
  endfacet
  facet normal -0.000105005 -0.927739 0.37323
    outer loop
      vertex 42.3127 -7.13292 2.05498
      vertex -93.6812 -7.00185 2.34252
      vertex -93.8568 -7.13292 2.01667
    endloop
  endfacet
  facet normal -0.000105016 -0.927743 0.373221
    outer loop
      vertex 77.3127 -7.00185 2.39063
      vertex 96.1152 -7.13292 2.07011
      vertex 96.2908 -7.00185 2.39597
    endloop
  endfacet
  facet normal -0.000105004 -0.927742 0.373221
    outer loop
      vertex 96.1152 -7.13292 2.07011
      vertex 77.3127 -7.00185 2.39063
      vertex 77.3127 -7.13292 2.06482
    endloop
  endfacet
  facet normal 0 -1 0
    outer loop
      vertex -94.8679 -7.5 -0.0711413
      vertex 42.3127 -7.5 0.014902
      vertex -94.956 -7.5 -0.0237144
    endloop
  endfacet
  facet normal 0 -1 -0
    outer loop
      vertex 42.3127 -7.5 0.014902
      vertex -94.8679 -7.5 -0.0711413
      vertex 42.3127 -7.5 -0.0325497
    endloop
  endfacet
  facet normal 0 -1 0
    outer loop
      vertex 77.3127 -7.5 0.0247481
      vertex 94.9904 -7.5 -0.0177305
      vertex 95.016 -7.5 0.0297284
    endloop
  endfacet
  facet normal -0 -1 0
    outer loop
      vertex 94.9904 -7.5 -0.0177305
      vertex 77.3127 -7.5 0.0247481
      vertex 77.3127 -7.5 -0.0227036
    endloop
  endfacet
  facet normal -0.000240687 -0.517623 0.855609
    outer loop
      vertex -91.9728 -4.08479 5.51388
      vertex 97.8937 -4.40839 5.37152
      vertex 97.9992 -4.08479 5.56732
    endloop
  endfacet
  facet normal -0.000240687 -0.517623 0.855609
    outer loop
      vertex 97.8937 -4.40839 5.37152
      vertex -91.9728 -4.08479 5.51388
      vertex -92.0782 -4.40839 5.31808
    endloop
  endfacet
  facet normal -0.000195923 0.717704 0.696349
    outer loop
      vertex 97.2546 5.82859 4.18502
      vertex -92.5758 5.57359 4.39443
      vertex 97.3962 5.57359 4.44788
    endloop
  endfacet
  facet normal -0.000195923 0.717704 0.696349
    outer loop
      vertex -92.5758 5.57359 4.39443
      vertex 97.2546 5.82859 4.18502
      vertex -92.7174 5.82859 4.13157
    endloop
  endfacet
  facet normal -0.000264285 0.34256 0.939496
    outer loop
      vertex 98.2656 3.05052 6.0617
      vertex -91.6352 2.68776 6.14055
      vertex 98.3368 2.68776 6.19399
    endloop
  endfacet
  facet normal -0.000264285 0.34256 0.939496
    outer loop
      vertex -91.6352 2.68776 6.14055
      vertex 98.2656 3.05052 6.0617
      vertex -91.7064 3.05052 6.00826
    endloop
  endfacet
  facet normal -0.000147665 -0.851111 0.524985
    outer loop
      vertex -93.1774 -6.49519 3.2777
      vertex 42.3127 -6.68255 3.01206
      vertex 42.3127 -6.49519 3.31581
    endloop
  endfacet
  facet normal -0.000147679 -0.851114 0.52498
    outer loop
      vertex 42.3127 -6.68255 3.01206
      vertex -93.1774 -6.49519 3.2777
      vertex -93.3411 -6.68255 2.9739
    endloop
  endfacet
  facet normal -0.000147673 -0.851107 0.524993
    outer loop
      vertex 77.3127 -6.49519 3.32566
      vertex 96.6309 -6.68255 3.02735
      vertex 96.7946 -6.49519 3.33114
    endloop
  endfacet
  facet normal -0.000147836 -0.851111 0.524985
    outer loop
      vertex 96.6309 -6.68255 3.02735
      vertex 77.3127 -6.49519 3.32566
      vertex 77.3127 -6.68255 3.02191
    endloop
  endfacet
  facet normal -0.000279487 -0.115113 0.993352
    outer loop
      vertex -91.4184 -0.783963 6.54293
      vertex 98.5293 -1.17326 6.55126
      vertex 98.5536 -0.783963 6.59638
    endloop
  endfacet
  facet normal -0.000279487 -0.115113 0.993352
    outer loop
      vertex 98.5293 -1.17326 6.55126
      vertex -91.4184 -0.783963 6.54293
      vertex -91.4427 -1.17326 6.49781
    endloop
  endfacet
  facet normal -0.00026856 -0.297586 0.954695
    outer loop
      vertex -91.573 -2.31763 6.25594
      vertex 98.3368 -2.68776 6.19399
      vertex 98.399 -2.31763 6.30938
    endloop
  endfacet
  facet normal -0.00026856 -0.297586 0.954695
    outer loop
      vertex 98.3368 -2.68776 6.19399
      vertex -91.573 -2.31763 6.25594
      vertex -91.6352 -2.68776 6.14055
    endloop
  endfacet
  facet normal -0.880282 0.00385597 0.474436
    outer loop
      vertex -94.956 7.5 -0.0237144
      vertex -94.5842 7.45891 0.666468
      vertex -94.7698 7.48972 0.32185
    endloop
  endfacet
  facet normal -0.880436 -0.00217736 0.47416
    outer loop
      vertex -94.956 7.5 -0.0237144
      vertex -94.3995 7.40766 1.00919
      vertex -94.5842 7.45891 0.666468
    endloop
  endfacet
  facet normal -0.880334 0.000611923 0.474354
    outer loop
      vertex -94.956 7.5 -0.0237144
      vertex -94.2164 7.33611 1.34909
      vertex -94.3995 7.40766 1.00919
    endloop
  endfacet
  facet normal -0.880373 -0.000163353 0.474282
    outer loop
      vertex -94.956 7.5 -0.0237144
      vertex -94.0353 7.24444 1.68522
      vertex -94.2164 7.33611 1.34909
    endloop
  endfacet
  facet normal -0.880299 0.00100792 0.474418
    outer loop
      vertex -94.956 7.5 -0.0237144
      vertex -93.8568 7.13292 2.01667
      vertex -94.0353 7.24444 1.68522
    endloop
  endfacet
  facet normal -0.880428 -0.000697936 0.47418
    outer loop
      vertex -94.956 7.5 -0.0237144
      vertex -93.6812 7.00185 2.34252
      vertex -93.8568 7.13292 2.01667
    endloop
  endfacet
  facet normal -0.880311 0.000629839 0.474397
    outer loop
      vertex -94.956 7.5 -0.0237144
      vertex -93.5092 6.85159 2.66189
      vertex -93.6812 7.00185 2.34252
    endloop
  endfacet
  facet normal -0.880387 -0.000119052 0.474257
    outer loop
      vertex -94.956 7.5 -0.0237144
      vertex -93.3411 6.68255 2.9739
      vertex -93.5092 6.85159 2.66189
    endloop
  endfacet
  facet normal -0.880406 -0.000289047 0.474221
    outer loop
      vertex -94.956 7.5 -0.0237144
      vertex -93.1774 6.49519 3.2777
      vertex -93.3411 6.68255 2.9739
    endloop
  endfacet
  facet normal -0.880284 0.000669978 0.474447
    outer loop
      vertex -94.956 7.5 -0.0237144
      vertex -93.0187 6.29003 3.57244
      vertex -93.1774 6.49519 3.2777
    endloop
  endfacet
  facet normal -0.880403 -0.000178573 0.474226
    outer loop
      vertex -94.956 7.5 -0.0237144
      vertex -92.8652 6.06763 3.85733
      vertex -93.0187 6.29003 3.57244
    endloop
  endfacet
  facet normal -0.880436 -0.000390699 0.474165
    outer loop
      vertex -94.956 7.5 -0.0237144
      vertex -92.7174 5.82859 4.13157
      vertex -92.8652 6.06763 3.85733
    endloop
  endfacet
  facet normal -0.880358 7.11453e-05 0.474309
    outer loop
      vertex -94.956 7.5 -0.0237144
      vertex -92.5758 5.57359 4.39443
      vertex -92.7174 5.82859 4.13157
    endloop
  endfacet
  facet normal -0.880284 0.000477389 0.474446
    outer loop
      vertex -94.956 7.5 -0.0237144
      vertex -92.4408 5.3033 4.64518
      vertex -92.5758 5.57359 4.39443
    endloop
  endfacet
  facet normal -0.880386 -3.84742e-05 0.474258
    outer loop
      vertex -94.956 7.5 -0.0237144
      vertex -92.3126 5.01848 4.88314
      vertex -92.4408 5.3033 4.64518
    endloop
  endfacet
  facet normal -0.880436 -0.000277402 0.474165
    outer loop
      vertex -94.956 7.5 -0.0237144
      vertex -92.1916 4.7199 5.10764
      vertex -92.3126 5.01848 4.88314
    endloop
  endfacet
  facet normal -0.880404 -0.000134875 0.474224
    outer loop
      vertex -94.956 7.5 -0.0237144
      vertex -92.0782 4.40839 5.31808
      vertex -92.1916 4.7199 5.10764
    endloop
  endfacet
  facet normal -0.880286 0.000351177 0.474442
    outer loop
      vertex -94.956 7.5 -0.0237144
      vertex -91.9728 4.08479 5.51388
      vertex -92.0782 4.40839 5.31808
    endloop
  endfacet
  facet normal -0.880379 -8.67002e-06 0.47427
    outer loop
      vertex -94.956 7.5 -0.0237144
      vertex -91.8755 3.75 5.69449
      vertex -91.9728 4.08479 5.51388
    endloop
  endfacet
  facet normal -0.880416 -0.000142919 0.474202
    outer loop
      vertex -94.956 7.5 -0.0237144
      vertex -91.7866 3.40493 5.85944
      vertex -91.8755 3.75 5.69449
    endloop
  endfacet
  facet normal -0.880402 -9.47898e-05 0.474228
    outer loop
      vertex -94.956 7.5 -0.0237144
      vertex -91.7064 3.05052 6.00826
      vertex -91.7866 3.40493 5.85944
    endloop
  endfacet
  facet normal -0.880303 0.000227298 0.474412
    outer loop
      vertex -94.956 7.5 -0.0237144
      vertex -91.6352 2.68776 6.14055
      vertex -91.7064 3.05052 6.00826
    endloop
  endfacet
  facet normal -0.880415 -0.000117369 0.474204
    outer loop
      vertex -94.956 7.5 -0.0237144
      vertex -91.573 2.31763 6.25594
      vertex -91.6352 2.68776 6.14055
    endloop
  endfacet
  facet normal -0.880383 -2.40936e-05 0.474263
    outer loop
      vertex -94.956 7.5 -0.0237144
      vertex -91.5201 1.94114 6.35412
      vertex -91.573 2.31763 6.25594
    endloop
  endfacet
  facet normal -0.8804 -7.03211e-05 0.474232
    outer loop
      vertex -94.956 7.5 -0.0237144
      vertex -91.4766 1.55934 6.43482
      vertex -91.5201 1.94114 6.35412
    endloop
  endfacet
  facet normal -0.880337 9.2669e-05 0.474348
    outer loop
      vertex -94.956 7.5 -0.0237144
      vertex -91.4427 1.17326 6.49781
      vertex -91.4766 1.55934 6.43482
    endloop
  endfacet
  facet normal -0.880367 1.83833e-05 0.474293
    outer loop
      vertex -94.956 7.5 -0.0237144
      vertex -91.4184 0.783963 6.54293
      vertex -91.4427 1.17326 6.49781
    endloop
  endfacet
  facet normal -0.880359 3.76285e-05 0.474308
    outer loop
      vertex -94.956 7.5 -0.0237144
      vertex -91.4038 0.392519 6.57006
      vertex -91.4184 0.783963 6.54293
    endloop
  endfacet
  facet normal -0.880407 -6.89299e-05 0.474219
    outer loop
      vertex -94.956 7.5 -0.0237144
      vertex -91.3989 0 6.5791
      vertex -91.4038 0.392519 6.57006
    endloop
  endfacet
  facet normal -0.880343 6.54107e-05 0.474337
    outer loop
      vertex -94.956 7.5 -0.0237144
      vertex -91.4038 -0.392519 6.57006
      vertex -91.3989 0 6.5791
    endloop
  endfacet
  facet normal -0.880392 -3.21514e-05 0.474247
    outer loop
      vertex -94.956 7.5 -0.0237144
      vertex -91.4184 -0.783963 6.54293
      vertex -91.4038 -0.392519 6.57006
    endloop
  endfacet
  facet normal -0.880375 0 0.474278
    outer loop
      vertex -94.956 -7.5 -0.0237144
      vertex -91.4184 -0.783963 6.54293
      vertex -94.956 7.5 -0.0237144
    endloop
  endfacet
  facet normal -0.880367 -1.83833e-05 0.474293
    outer loop
      vertex -91.4184 -0.783963 6.54293
      vertex -94.956 -7.5 -0.0237144
      vertex -91.4427 -1.17326 6.49781
    endloop
  endfacet
  facet normal -0.880337 -9.2669e-05 0.474348
    outer loop
      vertex -91.4427 -1.17326 6.49781
      vertex -94.956 -7.5 -0.0237144
      vertex -91.4766 -1.55934 6.43482
    endloop
  endfacet
  facet normal -0.8804 7.03211e-05 0.474232
    outer loop
      vertex -91.4766 -1.55934 6.43482
      vertex -94.956 -7.5 -0.0237144
      vertex -91.5201 -1.94114 6.35412
    endloop
  endfacet
  facet normal -0.880383 2.40936e-05 0.474263
    outer loop
      vertex -91.5201 -1.94114 6.35412
      vertex -94.956 -7.5 -0.0237144
      vertex -91.573 -2.31763 6.25594
    endloop
  endfacet
  facet normal -0.880415 0.000117369 0.474204
    outer loop
      vertex -91.573 -2.31763 6.25594
      vertex -94.956 -7.5 -0.0237144
      vertex -91.6352 -2.68776 6.14055
    endloop
  endfacet
  facet normal -0.880303 -0.000227298 0.474412
    outer loop
      vertex -91.6352 -2.68776 6.14055
      vertex -94.956 -7.5 -0.0237144
      vertex -91.7064 -3.05052 6.00826
    endloop
  endfacet
  facet normal -0.880402 9.47898e-05 0.474228
    outer loop
      vertex -91.7064 -3.05052 6.00826
      vertex -94.956 -7.5 -0.0237144
      vertex -91.7866 -3.40493 5.85944
    endloop
  endfacet
  facet normal -0.880416 0.000142919 0.474202
    outer loop
      vertex -91.7866 -3.40493 5.85944
      vertex -94.956 -7.5 -0.0237144
      vertex -91.8755 -3.75 5.69449
    endloop
  endfacet
  facet normal -0.880379 8.67002e-06 0.47427
    outer loop
      vertex -91.8755 -3.75 5.69449
      vertex -94.956 -7.5 -0.0237144
      vertex -91.9728 -4.08479 5.51388
    endloop
  endfacet
  facet normal -0.880286 -0.000351177 0.474442
    outer loop
      vertex -91.9728 -4.08479 5.51388
      vertex -94.956 -7.5 -0.0237144
      vertex -92.0782 -4.40839 5.31808
    endloop
  endfacet
  facet normal -0.880404 0.000134875 0.474224
    outer loop
      vertex -92.0782 -4.40839 5.31808
      vertex -94.956 -7.5 -0.0237144
      vertex -92.1916 -4.7199 5.10764
    endloop
  endfacet
  facet normal -0.880436 0.000277402 0.474165
    outer loop
      vertex -92.1916 -4.7199 5.10764
      vertex -94.956 -7.5 -0.0237144
      vertex -92.3126 -5.01848 4.88314
    endloop
  endfacet
  facet normal -0.880386 3.84742e-05 0.474258
    outer loop
      vertex -92.3126 -5.01848 4.88314
      vertex -94.956 -7.5 -0.0237144
      vertex -92.4408 -5.3033 4.64518
    endloop
  endfacet
  facet normal -0.880284 -0.000477389 0.474446
    outer loop
      vertex -92.4408 -5.3033 4.64518
      vertex -94.956 -7.5 -0.0237144
      vertex -92.5758 -5.57359 4.39443
    endloop
  endfacet
  facet normal -0.880358 -7.11453e-05 0.474309
    outer loop
      vertex -92.5758 -5.57359 4.39443
      vertex -94.956 -7.5 -0.0237144
      vertex -92.7174 -5.82859 4.13157
    endloop
  endfacet
  facet normal -0.880436 0.000390699 0.474165
    outer loop
      vertex -92.7174 -5.82859 4.13157
      vertex -94.956 -7.5 -0.0237144
      vertex -92.8652 -6.06763 3.85733
    endloop
  endfacet
  facet normal -0.880403 0.000178573 0.474226
    outer loop
      vertex -92.8652 -6.06763 3.85733
      vertex -94.956 -7.5 -0.0237144
      vertex -93.0187 -6.29003 3.57244
    endloop
  endfacet
  facet normal -0.880284 -0.000669978 0.474447
    outer loop
      vertex -93.0187 -6.29003 3.57244
      vertex -94.956 -7.5 -0.0237144
      vertex -93.1774 -6.49519 3.2777
    endloop
  endfacet
  facet normal -0.880406 0.000289047 0.474221
    outer loop
      vertex -93.1774 -6.49519 3.2777
      vertex -94.956 -7.5 -0.0237144
      vertex -93.3411 -6.68255 2.9739
    endloop
  endfacet
  facet normal -0.880387 0.000119052 0.474257
    outer loop
      vertex -93.3411 -6.68255 2.9739
      vertex -94.956 -7.5 -0.0237144
      vertex -93.5092 -6.85159 2.66189
    endloop
  endfacet
  facet normal -0.880311 -0.000629839 0.474397
    outer loop
      vertex -93.5092 -6.85159 2.66189
      vertex -94.956 -7.5 -0.0237144
      vertex -93.6812 -7.00185 2.34252
    endloop
  endfacet
  facet normal -0.880428 0.000697936 0.47418
    outer loop
      vertex -93.6812 -7.00185 2.34252
      vertex -94.956 -7.5 -0.0237144
      vertex -93.8568 -7.13292 2.01667
    endloop
  endfacet
  facet normal -0.880299 -0.00100792 0.474418
    outer loop
      vertex -93.8568 -7.13292 2.01667
      vertex -94.956 -7.5 -0.0237144
      vertex -94.0353 -7.24444 1.68522
    endloop
  endfacet
  facet normal -0.880373 0.000163353 0.474282
    outer loop
      vertex -94.0353 -7.24444 1.68522
      vertex -94.956 -7.5 -0.0237144
      vertex -94.2164 -7.33611 1.34909
    endloop
  endfacet
  facet normal -0.880334 -0.000611923 0.474354
    outer loop
      vertex -94.2164 -7.33611 1.34909
      vertex -94.956 -7.5 -0.0237144
      vertex -94.3995 -7.40766 1.00919
    endloop
  endfacet
  facet normal -0.880436 0.00217736 0.47416
    outer loop
      vertex -94.3995 -7.40766 1.00919
      vertex -94.956 -7.5 -0.0237144
      vertex -94.5842 -7.45891 0.666468
    endloop
  endfacet
  facet normal -0.880282 -0.00385597 0.474436
    outer loop
      vertex -94.5842 -7.45891 0.666468
      vertex -94.956 -7.5 -0.0237144
      vertex -94.7698 -7.48972 0.32185
    endloop
  endfacet
  facet normal -0.000233111 0.559727 0.828677
    outer loop
      vertex 97.7804 4.7199 5.16108
      vertex -92.0782 4.40839 5.31808
      vertex 97.8937 4.40839 5.37152
    endloop
  endfacet
  facet normal -0.000233111 0.559727 0.828677
    outer loop
      vertex -92.0782 4.40839 5.31808
      vertex 97.7804 4.7199 5.16108
      vertex -92.1916 4.7199 5.10764
    endloop
  endfacet
  facet normal -0.000272204 -0.252302 0.967648
    outer loop
      vertex -91.5201 -1.94114 6.35412
      vertex 98.399 -2.31763 6.30938
      vertex 98.4519 -1.94114 6.40756
    endloop
  endfacet
  facet normal -0.000272204 -0.252302 0.967648
    outer loop
      vertex 98.399 -2.31763 6.30938
      vertex -91.5201 -1.94114 6.35412
      vertex -91.573 -2.31763 6.25594
    endloop
  endfacet
  facet normal -0.000215894 -0.641081 0.767473
    outer loop
      vertex -92.3126 -5.01848 4.88314
      vertex 97.5312 -5.3033 4.69863
      vertex 97.6594 -5.01848 4.93658
    endloop
  endfacet
  facet normal -0.00021593 -0.641097 0.76746
    outer loop
      vertex 97.5312 -5.3033 4.69863
      vertex -92.3126 -5.01848 4.88314
      vertex -92.4408 -5.3033 4.64518
    endloop
  endfacet
  facet normal -0.000160726 -0.820708 0.571348
    outer loop
      vertex -93.0187 -6.29003 3.57244
      vertex 42.3127 -6.49519 3.31581
      vertex 42.3127 -6.29003 3.61051
    endloop
  endfacet
  facet normal -0.000160708 -0.820703 0.571354
    outer loop
      vertex 42.3127 -6.49519 3.31581
      vertex -93.0187 -6.29003 3.57244
      vertex -93.1774 -6.49519 3.2777
    endloop
  endfacet
  facet normal -0.000160579 -0.820703 0.571354
    outer loop
      vertex 77.3127 -6.29003 3.62036
      vertex 96.7946 -6.49519 3.33114
      vertex 96.9533 -6.29003 3.62588
    endloop
  endfacet
  facet normal -0.000160713 -0.820708 0.571348
    outer loop
      vertex 96.7946 -6.49519 3.33114
      vertex 77.3127 -6.29003 3.62036
      vertex 77.3127 -6.49519 3.32566
    endloop
  endfacet
  facet normal -0.000206397 -0.680055 0.733161
    outer loop
      vertex 97.5312 -5.3033 4.69863
      vertex 77.3127 -5.44235 4.56396
      vertex 97.3962 -5.57359 4.44788
    endloop
  endfacet
  facet normal -0.000206159 -0.680074 0.733144
    outer loop
      vertex 97.5312 -5.3033 4.69863
      vertex 42.3127 -5.43174 4.56396
      vertex 77.3127 -5.44235 4.56396
    endloop
  endfacet
  facet normal -0.000206282 -0.680047 0.733169
    outer loop
      vertex -92.4408 -5.3033 4.64518
      vertex 42.3127 -5.43174 4.56396
      vertex 97.5312 -5.3033 4.69863
    endloop
  endfacet
  facet normal -0.000206315 -0.680068 0.733149
    outer loop
      vertex -92.4408 -5.3033 4.64518
      vertex 42.3127 -5.57359 4.43238
      vertex 42.3127 -5.43174 4.56396
    endloop
  endfacet
  facet normal -0.00020627 -0.680055 0.733161
    outer loop
      vertex 42.3127 -5.57359 4.43238
      vertex -92.4408 -5.3033 4.64518
      vertex -92.5758 -5.57359 4.39443
    endloop
  endfacet
  facet normal -0.00020626 -0.680044 0.733171
    outer loop
      vertex 97.3962 -5.57359 4.44788
      vertex 77.3127 -5.44235 4.56396
      vertex 77.3127 -5.57359 4.44223
    endloop
  endfacet
  facet normal 0 -1 0
    outer loop
      vertex 42.3127 4.4 4.56396
      vertex 77.3127 4.4 -0.0227036
      vertex 77.3127 4.4 4.56396
    endloop
  endfacet
  facet normal -0 -1 0
    outer loop
      vertex 77.3127 4.4 -0.0227036
      vertex 42.3127 4.4 4.56396
      vertex 42.3127 4.4 -0.0325497
    endloop
  endfacet
  facet normal 0 0 -1
    outer loop
      vertex 42.3127 -5.43174 4.56396
      vertex 77.3127 4.4 4.56396
      vertex 77.3127 -5.44235 4.56396
    endloop
  endfacet
  facet normal -0 0 -1
    outer loop
      vertex 77.3127 4.4 4.56396
      vertex 42.3127 -5.43174 4.56396
      vertex 42.3127 4.4 4.56396
    endloop
  endfacet
  facet normal -1 0 0
    outer loop
      vertex 77.3127 4.4 -0.0227036
      vertex 77.3127 -5.44235 4.56396
      vertex 77.3127 4.4 4.56396
    endloop
  endfacet
  facet normal -1 0 0
    outer loop
      vertex 77.3127 4.4 -0.0227036
      vertex 77.3127 -5.57359 4.44223
      vertex 77.3127 -5.44235 4.56396
    endloop
  endfacet
  facet normal -1 0 0
    outer loop
      vertex 77.3127 4.4 -0.0227036
      vertex 77.3127 -5.82859 4.17941
      vertex 77.3127 -5.57359 4.44223
    endloop
  endfacet
  facet normal -1 0 0
    outer loop
      vertex 77.3127 4.4 -0.0227036
      vertex 77.3127 -6.06763 3.9052
      vertex 77.3127 -5.82859 4.17941
    endloop
  endfacet
  facet normal -1 0 0
    outer loop
      vertex 77.3127 4.4 -0.0227036
      vertex 77.3127 -6.29003 3.62036
      vertex 77.3127 -6.06763 3.9052
    endloop
  endfacet
  facet normal -1 0 0
    outer loop
      vertex 77.3127 4.4 -0.0227036
      vertex 77.3127 -6.49519 3.32566
      vertex 77.3127 -6.29003 3.62036
    endloop
  endfacet
  facet normal -1 0 0
    outer loop
      vertex 77.3127 4.4 -0.0227036
      vertex 77.3127 -6.68255 3.02191
      vertex 77.3127 -6.49519 3.32566
    endloop
  endfacet
  facet normal -1 0 0
    outer loop
      vertex 77.3127 4.4 -0.0227036
      vertex 77.3127 -6.85159 2.70995
      vertex 77.3127 -6.68255 3.02191
    endloop
  endfacet
  facet normal -1 0 0
    outer loop
      vertex 77.3127 4.4 -0.0227036
      vertex 77.3127 -7.00185 2.39063
      vertex 77.3127 -6.85159 2.70995
    endloop
  endfacet
  facet normal -1 0 0
    outer loop
      vertex 77.3127 4.4 -0.0227036
      vertex 77.3127 -7.13292 2.06482
      vertex 77.3127 -7.00185 2.39063
    endloop
  endfacet
  facet normal -1 0 0
    outer loop
      vertex 77.3127 4.4 -0.0227036
      vertex 77.3127 -7.24444 1.73342
      vertex 77.3127 -7.13292 2.06482
    endloop
  endfacet
  facet normal -1 0 0
    outer loop
      vertex 77.3127 4.4 -0.0227036
      vertex 77.3127 -7.33611 1.39734
      vertex 77.3127 -7.24444 1.73342
    endloop
  endfacet
  facet normal -1 0 0
    outer loop
      vertex 77.3127 4.4 -0.0227036
      vertex 77.3127 -7.40766 1.0575
      vertex 77.3127 -7.33611 1.39734
    endloop
  endfacet
  facet normal -1 0 0
    outer loop
      vertex 77.3127 4.4 -0.0227036
      vertex 77.3127 -7.45891 0.714826
      vertex 77.3127 -7.40766 1.0575
    endloop
  endfacet
  facet normal -1 0 0
    outer loop
      vertex 77.3127 4.4 -0.0227036
      vertex 77.3127 -7.48972 0.37026
      vertex 77.3127 -7.45891 0.714826
    endloop
  endfacet
  facet normal -1 0 0
    outer loop
      vertex 77.3127 -7.5 -0.0227036
      vertex 77.3127 -7.48972 0.37026
      vertex 77.3127 4.4 -0.0227036
    endloop
  endfacet
  facet normal -1 0 0
    outer loop
      vertex 77.3127 -7.48972 0.37026
      vertex 77.3127 -7.5 -0.0227036
      vertex 77.3127 -7.5 0.0247481
    endloop
  endfacet
  facet normal 1 -0 0
    outer loop
      vertex 42.3127 -5.43174 4.56396
      vertex 42.3127 4.4 -0.0325497
      vertex 42.3127 4.4 4.56396
    endloop
  endfacet
  facet normal 1 -0 0
    outer loop
      vertex 42.3127 -5.57359 4.43238
      vertex 42.3127 4.4 -0.0325497
      vertex 42.3127 -5.43174 4.56396
    endloop
  endfacet
  facet normal 1 -0 0
    outer loop
      vertex 42.3127 -5.82859 4.16956
      vertex 42.3127 4.4 -0.0325497
      vertex 42.3127 -5.57359 4.43238
    endloop
  endfacet
  facet normal 1 -0 0
    outer loop
      vertex 42.3127 -6.06763 3.89535
      vertex 42.3127 4.4 -0.0325497
      vertex 42.3127 -5.82859 4.16956
    endloop
  endfacet
  facet normal 1 -0 0
    outer loop
      vertex 42.3127 -6.29003 3.61051
      vertex 42.3127 4.4 -0.0325497
      vertex 42.3127 -6.06763 3.89535
    endloop
  endfacet
  facet normal 1 -0 0
    outer loop
      vertex 42.3127 -6.49519 3.31581
      vertex 42.3127 4.4 -0.0325497
      vertex 42.3127 -6.29003 3.61051
    endloop
  endfacet
  facet normal 1 -0 0
    outer loop
      vertex 42.3127 -6.68255 3.01206
      vertex 42.3127 4.4 -0.0325497
      vertex 42.3127 -6.49519 3.31581
    endloop
  endfacet
  facet normal 1 -0 0
    outer loop
      vertex 42.3127 -6.85159 2.7001
      vertex 42.3127 4.4 -0.0325497
      vertex 42.3127 -6.68255 3.01206
    endloop
  endfacet
  facet normal 1 -0 0
    outer loop
      vertex 42.3127 -7.00185 2.38078
      vertex 42.3127 4.4 -0.0325497
      vertex 42.3127 -6.85159 2.7001
    endloop
  endfacet
  facet normal 1 -0 0
    outer loop
      vertex 42.3127 -7.13292 2.05498
      vertex 42.3127 4.4 -0.0325497
      vertex 42.3127 -7.00185 2.38078
    endloop
  endfacet
  facet normal 1 -0 0
    outer loop
      vertex 42.3127 -7.24444 1.72358
      vertex 42.3127 4.4 -0.0325497
      vertex 42.3127 -7.13292 2.05498
    endloop
  endfacet
  facet normal 1 -0 0
    outer loop
      vertex 42.3127 -7.33611 1.3875
      vertex 42.3127 4.4 -0.0325497
      vertex 42.3127 -7.24444 1.72358
    endloop
  endfacet
  facet normal 1 -0 0
    outer loop
      vertex 42.3127 -7.40766 1.04765
      vertex 42.3127 4.4 -0.0325497
      vertex 42.3127 -7.33611 1.3875
    endloop
  endfacet
  facet normal 1 -0 0
    outer loop
      vertex 42.3127 -7.45891 0.70498
      vertex 42.3127 4.4 -0.0325497
      vertex 42.3127 -7.40766 1.04765
    endloop
  endfacet
  facet normal 1 -0 0
    outer loop
      vertex 42.3127 -7.48972 0.360414
      vertex 42.3127 4.4 -0.0325497
      vertex 42.3127 -7.45891 0.70498
    endloop
  endfacet
  facet normal 1 -0 0
    outer loop
      vertex 42.3127 -7.5 0.014902
      vertex 42.3127 4.4 -0.0325497
      vertex 42.3127 -7.48972 0.360414
    endloop
  endfacet
  facet normal 1 0 0
    outer loop
      vertex 42.3127 4.4 -0.0325497
      vertex 42.3127 -7.5 0.014902
      vertex 42.3127 -7.5 -0.0325497
    endloop
  endfacet
  facet normal 0.879989 -0.0173275 -0.474678
    outer loop
      vertex 95.2022 7.48972 0.375293
      vertex 94.9904 7.5 -0.0177305
      vertex 95.016 7.5 0.0297284
    endloop
  endfacet
  facet normal 0.88025 -0.00461693 -0.474487
    outer loop
      vertex 95.3878 7.45891 0.719911
      vertex 94.9904 7.5 -0.0177305
      vertex 95.2022 7.48972 0.375293
    endloop
  endfacet
  facet normal 0.880402 0.00155436 -0.474225
    outer loop
      vertex 95.5725 7.40766 1.06264
      vertex 94.9904 7.5 -0.0177305
      vertex 95.3878 7.45891 0.719911
    endloop
  endfacet
  facet normal 0.880324 -0.000654379 -0.474372
    outer loop
      vertex 95.7556 7.33611 1.40253
      vertex 94.9904 7.5 -0.0177305
      vertex 95.5725 7.40766 1.06264
    endloop
  endfacet
  facet normal 0.880358 2.93099e-05 -0.474311
    outer loop
      vertex 95.9367 7.24444 1.73866
      vertex 94.9904 7.5 -0.0177305
      vertex 95.7556 7.33611 1.40253
    endloop
  endfacet
  facet normal 0.88029 -0.00107242 -0.474435
    outer loop
      vertex 96.1152 7.13292 2.07011
      vertex 94.9904 7.5 -0.0177305
      vertex 95.9367 7.24444 1.73866
    endloop
  endfacet
  facet normal 0.88041 0.000557063 -0.474213
    outer loop
      vertex 96.2908 7.00185 2.39597
      vertex 94.9904 7.5 -0.0177305
      vertex 96.1152 7.13292 2.07011
    endloop
  endfacet
  facet normal 0.880305 -0.000658372 -0.474407
    outer loop
      vertex 96.4628 6.85159 2.71534
      vertex 94.9904 7.5 -0.0177305
      vertex 96.2908 7.00185 2.39597
    endloop
  endfacet
  facet normal 0.880379 8.68794e-05 -0.47427
    outer loop
      vertex 96.6309 6.68255 3.02735
      vertex 94.9904 7.5 -0.0177305
      vertex 96.4628 6.85159 2.71534
    endloop
  endfacet
  facet normal 0.880404 0.000306544 -0.474225
    outer loop
      vertex 96.7946 6.49519 3.33114
      vertex 94.9904 7.5 -0.0177305
      vertex 96.6309 6.68255 3.02735
    endloop
  endfacet
  facet normal 0.880279 -0.000684952 -0.474455
    outer loop
      vertex 96.9533 6.29003 3.62588
      vertex 94.9904 7.5 -0.0177305
      vertex 96.7946 6.49519 3.33114
    endloop
  endfacet
  facet normal 0.880397 0.000158126 -0.474238
    outer loop
      vertex 97.1068 6.06763 3.91077
      vertex 94.9904 7.5 -0.0177305
      vertex 96.9533 6.29003 3.62588
    endloop
  endfacet
  facet normal 0.880424 0.000337949 -0.474187
    outer loop
      vertex 97.2546 5.82859 4.18502
      vertex 94.9904 7.5 -0.0177305
      vertex 97.1068 6.06763 3.91077
    endloop
  endfacet
  facet normal 0.880354 -8.09433e-05 -0.474316
    outer loop
      vertex 97.3962 5.57359 4.44788
      vertex 94.9904 7.5 -0.0177305
      vertex 97.2546 5.82859 4.18502
    endloop
  endfacet
  facet normal 0.880282 -0.000482639 -0.474451
    outer loop
      vertex 97.5312 5.3033 4.69863
      vertex 94.9904 7.5 -0.0177305
      vertex 97.3962 5.57359 4.44788
    endloop
  endfacet
  facet normal 0.880387 5.79939e-05 -0.474256
    outer loop
      vertex 97.6594 5.01848 4.93658
      vertex 94.9904 7.5 -0.0177305
      vertex 97.5312 5.3033 4.69863
    endloop
  endfacet
  facet normal 0.880431 0.000268353 -0.474174
    outer loop
      vertex 97.7804 4.7199 5.16108
      vertex 94.9904 7.5 -0.0177305
      vertex 97.6594 5.01848 4.93658
    endloop
  endfacet
  facet normal 0.8803 -0.000315381 -0.474417
    outer loop
      vertex 97.8937 4.40839 5.37152
      vertex 94.9904 7.5 -0.0177305
      vertex 97.7804 4.7199 5.16108
    endloop
  endfacet
  facet normal 0.880394 7.71568e-05 -0.474242
    outer loop
      vertex 97.9992 4.08479 5.56732
      vertex 94.9904 7.5 -0.0177305
      vertex 97.8937 4.40839 5.37152
    endloop
  endfacet
  facet normal 0.88037 -1.68929e-05 -0.474287
    outer loop
      vertex 98.0965 3.75 5.74794
      vertex 94.9904 7.5 -0.0177305
      vertex 97.9992 4.08479 5.56732
    endloop
  endfacet
  facet normal 0.880418 0.000159238 -0.474198
    outer loop
      vertex 98.1854 3.40493 5.91288
      vertex 94.9904 7.5 -0.0177305
      vertex 98.0965 3.75 5.74794
    endloop
  endfacet
  facet normal 0.880399 9.1472e-05 -0.474234
    outer loop
      vertex 98.2656 3.05052 6.0617
      vertex 94.9904 7.5 -0.0177305
      vertex 98.1854 3.40493 5.91288
    endloop
  endfacet
  facet normal 0.880301 -0.000229096 -0.474416
    outer loop
      vertex 98.3368 2.68776 6.19399
      vertex 94.9904 7.5 -0.0177305
      vertex 98.2656 3.05052 6.0617
    endloop
  endfacet
  facet normal 0.880412 0.000115068 -0.47421
    outer loop
      vertex 98.399 2.31763 6.30938
      vertex 94.9904 7.5 -0.0177305
      vertex 98.3368 2.68776 6.19399
    endloop
  endfacet
  facet normal 0.88038 2.24631e-05 -0.474268
    outer loop
      vertex 98.4519 1.94114 6.40756
      vertex 94.9904 7.5 -0.0177305
      vertex 98.399 2.31763 6.30938
    endloop
  endfacet
  facet normal 0.880397 6.89915e-05 -0.474237
    outer loop
      vertex 98.4954 1.55934 6.48826
      vertex 94.9904 7.5 -0.0177305
      vertex 98.4519 1.94114 6.40756
    endloop
  endfacet
  facet normal 0.88033 -0.000107869 -0.474362
    outer loop
      vertex 98.5293 1.17326 6.55126
      vertex 94.9904 7.5 -0.0177305
      vertex 98.4954 1.55934 6.48826
    endloop
  endfacet
  facet normal 0.880366 -1.88715e-05 -0.474296
    outer loop
      vertex 98.5536 0.783963 6.59638
      vertex 94.9904 7.5 -0.0177305
      vertex 98.5293 1.17326 6.55126
    endloop
  endfacet
  facet normal 0.880363 -2.48612e-05 -0.474301
    outer loop
      vertex 98.5682 0.392519 6.6235
      vertex 94.9904 7.5 -0.0177305
      vertex 98.5536 0.783963 6.59638
    endloop
  endfacet
  facet normal 0.880399 5.64218e-05 -0.474233
    outer loop
      vertex 98.5731 0 6.63255
      vertex 94.9904 7.5 -0.0177305
      vertex 98.5682 0.392519 6.6235
    endloop
  endfacet
  facet normal 0.880348 -5.35589e-05 -0.474329
    outer loop
      vertex 98.5682 -0.392519 6.6235
      vertex 94.9904 7.5 -0.0177305
      vertex 98.5731 0 6.63255
    endloop
  endfacet
  facet normal 0.880385 2.12674e-05 -0.47426
    outer loop
      vertex 98.5536 -0.783963 6.59638
      vertex 94.9904 7.5 -0.0177305
      vertex 98.5682 -0.392519 6.6235
    endloop
  endfacet
  facet normal 0.880366 1.88715e-05 -0.474296
    outer loop
      vertex 94.9904 -7.5 -0.0177305
      vertex 98.5536 -0.783963 6.59638
      vertex 98.5293 -1.17326 6.55126
    endloop
  endfacet
  facet normal 0.88033 0.000107869 -0.474362
    outer loop
      vertex 94.9904 -7.5 -0.0177305
      vertex 98.5293 -1.17326 6.55126
      vertex 98.4954 -1.55934 6.48826
    endloop
  endfacet
  facet normal 0.880397 -6.89915e-05 -0.474237
    outer loop
      vertex 94.9904 -7.5 -0.0177305
      vertex 98.4954 -1.55934 6.48826
      vertex 98.4519 -1.94114 6.40756
    endloop
  endfacet
  facet normal 0.88038 -2.24631e-05 -0.474268
    outer loop
      vertex 94.9904 -7.5 -0.0177305
      vertex 98.4519 -1.94114 6.40756
      vertex 98.399 -2.31763 6.30938
    endloop
  endfacet
  facet normal 0.880412 -0.000115068 -0.47421
    outer loop
      vertex 94.9904 -7.5 -0.0177305
      vertex 98.399 -2.31763 6.30938
      vertex 98.3368 -2.68776 6.19399
    endloop
  endfacet
  facet normal 0.880301 0.000229096 -0.474416
    outer loop
      vertex 94.9904 -7.5 -0.0177305
      vertex 98.3368 -2.68776 6.19399
      vertex 98.2656 -3.05052 6.0617
    endloop
  endfacet
  facet normal 0.880399 -9.1472e-05 -0.474234
    outer loop
      vertex 94.9904 -7.5 -0.0177305
      vertex 98.2656 -3.05052 6.0617
      vertex 98.1854 -3.40493 5.91288
    endloop
  endfacet
  facet normal 0.880418 -0.000159238 -0.474198
    outer loop
      vertex 94.9904 -7.5 -0.0177305
      vertex 98.1854 -3.40493 5.91288
      vertex 98.0965 -3.75 5.74794
    endloop
  endfacet
  facet normal 0.88037 1.68929e-05 -0.474287
    outer loop
      vertex 94.9904 -7.5 -0.0177305
      vertex 98.0965 -3.75 5.74794
      vertex 97.9992 -4.08479 5.56732
    endloop
  endfacet
  facet normal 0.880394 -7.71568e-05 -0.474242
    outer loop
      vertex 94.9904 -7.5 -0.0177305
      vertex 97.9992 -4.08479 5.56732
      vertex 97.8937 -4.40839 5.37152
    endloop
  endfacet
  facet normal 0.8803 0.000315381 -0.474417
    outer loop
      vertex 94.9904 -7.5 -0.0177305
      vertex 97.8937 -4.40839 5.37152
      vertex 97.7804 -4.7199 5.16108
    endloop
  endfacet
  facet normal 0.880431 -0.000268353 -0.474174
    outer loop
      vertex 94.9904 -7.5 -0.0177305
      vertex 97.7804 -4.7199 5.16108
      vertex 97.6594 -5.01848 4.93658
    endloop
  endfacet
  facet normal 0.880387 -5.79939e-05 -0.474256
    outer loop
      vertex 94.9904 -7.5 -0.0177305
      vertex 97.6594 -5.01848 4.93658
      vertex 97.5312 -5.3033 4.69863
    endloop
  endfacet
  facet normal 0.880282 0.000482639 -0.474451
    outer loop
      vertex 94.9904 -7.5 -0.0177305
      vertex 97.5312 -5.3033 4.69863
      vertex 97.3962 -5.57359 4.44788
    endloop
  endfacet
  facet normal 0.880354 8.09433e-05 -0.474316
    outer loop
      vertex 94.9904 -7.5 -0.0177305
      vertex 97.3962 -5.57359 4.44788
      vertex 97.2546 -5.82859 4.18502
    endloop
  endfacet
  facet normal 0.880424 -0.000337949 -0.474187
    outer loop
      vertex 94.9904 -7.5 -0.0177305
      vertex 97.2546 -5.82859 4.18502
      vertex 97.1068 -6.06763 3.91077
    endloop
  endfacet
  facet normal 0.880397 -0.000158126 -0.474238
    outer loop
      vertex 94.9904 -7.5 -0.0177305
      vertex 97.1068 -6.06763 3.91077
      vertex 96.9533 -6.29003 3.62588
    endloop
  endfacet
  facet normal 0.880279 0.000684952 -0.474455
    outer loop
      vertex 94.9904 -7.5 -0.0177305
      vertex 96.9533 -6.29003 3.62588
      vertex 96.7946 -6.49519 3.33114
    endloop
  endfacet
  facet normal 0.880404 -0.000306544 -0.474225
    outer loop
      vertex 94.9904 -7.5 -0.0177305
      vertex 96.7946 -6.49519 3.33114
      vertex 96.6309 -6.68255 3.02735
    endloop
  endfacet
  facet normal 0.880379 -8.68794e-05 -0.47427
    outer loop
      vertex 94.9904 -7.5 -0.0177305
      vertex 96.6309 -6.68255 3.02735
      vertex 96.4628 -6.85159 2.71534
    endloop
  endfacet
  facet normal 0.880305 0.000658372 -0.474407
    outer loop
      vertex 94.9904 -7.5 -0.0177305
      vertex 96.4628 -6.85159 2.71534
      vertex 96.2908 -7.00185 2.39597
    endloop
  endfacet
  facet normal 0.88041 -0.000557063 -0.474213
    outer loop
      vertex 94.9904 -7.5 -0.0177305
      vertex 96.2908 -7.00185 2.39597
      vertex 96.1152 -7.13292 2.07011
    endloop
  endfacet
  facet normal 0.88029 0.00107242 -0.474435
    outer loop
      vertex 94.9904 -7.5 -0.0177305
      vertex 96.1152 -7.13292 2.07011
      vertex 95.9367 -7.24444 1.73866
    endloop
  endfacet
  facet normal 0.880358 -2.93099e-05 -0.474311
    outer loop
      vertex 94.9904 -7.5 -0.0177305
      vertex 95.9367 -7.24444 1.73866
      vertex 95.7556 -7.33611 1.40253
    endloop
  endfacet
  facet normal 0.880324 0.000654379 -0.474372
    outer loop
      vertex 94.9904 -7.5 -0.0177305
      vertex 95.7556 -7.33611 1.40253
      vertex 95.5725 -7.40766 1.06264
    endloop
  endfacet
  facet normal 0.880402 -0.00155436 -0.474225
    outer loop
      vertex 94.9904 -7.5 -0.0177305
      vertex 95.5725 -7.40766 1.06264
      vertex 95.3878 -7.45891 0.719911
    endloop
  endfacet
  facet normal 0.880282 0.00385137 -0.474435
    outer loop
      vertex 95.016 -7.5 0.0297284
      vertex 95.3878 -7.45891 0.719911
      vertex 95.2022 -7.48972 0.375293
    endloop
  endfacet
  facet normal 0.880072 0.0105855 -0.474723
    outer loop
      vertex 94.9904 -7.5 -0.0177305
      vertex 95.3878 -7.45891 0.719911
      vertex 95.016 -7.5 0.0297284
    endloop
  endfacet
  facet normal 0.880374 0 -0.474281
    outer loop
      vertex 98.5536 -0.783963 6.59638
      vertex 94.9904 -7.5 -0.0177305
      vertex 94.9904 7.5 -0.0177305
    endloop
  endfacet
endsolid OpenSCAD_Model
