solid OpenSCAD_Model
  facet normal 0.474276 0.880376 -0
    outer loop
      vertex 297 -160 -1.5
      vertex 178.438 -96.1284 1.5
      vertex 297 -160 1.5
    endloop
  endfacet
  facet normal 0.474276 0.880376 0
    outer loop
      vertex 178.438 -96.1284 1.5
      vertex 297 -160 -1.5
      vertex 178.438 -96.1284 -1.5
    endloop
  endfacet
  facet normal 0.474283 0.880372 -0
    outer loop
      vertex 147.625 -79.5288 -1.5
      vertex 120.925 -65.1447 1.5
      vertex 147.625 -79.5288 1.5
    endloop
  endfacet
  facet normal 0.474283 0.880372 0
    outer loop
      vertex 120.925 -65.1447 1.5
      vertex 147.625 -79.5288 -1.5
      vertex 120.925 -65.1447 -1.5
    endloop
  endfacet
  facet normal 0.474276 0.880376 -0
    outer loop
      vertex 74.2504 -40.0002 -1.5
      vertex 69.6094 -37.5 1.5
      vertex 74.2504 -40.0002 1.5
    endloop
  endfacet
  facet normal 0.474276 0.880376 0
    outer loop
      vertex 69.6094 -37.5 1.5
      vertex 74.2504 -40.0002 -1.5
      vertex 69.6094 -37.5 -1.5
    endloop
  endfacet
  facet normal -1 0 0
    outer loop
      vertex 0 -150 -1.5
      vertex 0 -37.5 1.5
      vertex 0 -37.5 -1.5
    endloop
  endfacet
  facet normal -1 -0 0
    outer loop
      vertex 0 -37.5 1.5
      vertex 0 -150 -1.5
      vertex 0 -150 1.5
    endloop
  endfacet
  facet normal 0 1 -0
    outer loop
      vertex 69.6094 -37.5 -1.5
      vertex 0 -37.5 1.5
      vertex 69.6094 -37.5 1.5
    endloop
  endfacet
  facet normal 0 1 0
    outer loop
      vertex 0 -37.5 1.5
      vertex 69.6094 -37.5 -1.5
      vertex 0 -37.5 -1.5
    endloop
  endfacet
  facet normal 0.474523 0.880243 -0
    outer loop
      vertex 120.925 -65.1616 -1.5
      vertex 74.2504 -40.0002 1.5
      vertex 120.925 -65.1616 1.5
    endloop
  endfacet
  facet normal 0.474523 0.880243 0
    outer loop
      vertex 74.2504 -40.0002 1.5
      vertex 120.925 -65.1616 -1.5
      vertex 74.2504 -40.0002 -1.5
    endloop
  endfacet
  facet normal -1 0 0
    outer loop
      vertex 120.925 -65.1616 -1.5
      vertex 120.925 -65.1447 1.5
      vertex 120.925 -65.1447 -1.5
    endloop
  endfacet
  facet normal -1 -0 0
    outer loop
      vertex 120.925 -65.1447 1.5
      vertex 120.925 -65.1616 -1.5
      vertex 120.925 -65.1616 1.5
    endloop
  endfacet
  facet normal 1 -0 0
    outer loop
      vertex 297 -210 1.5
      vertex 297 -160 -1.5
      vertex 297 -160 1.5
    endloop
  endfacet
  facet normal 1 0 0
    outer loop
      vertex 297 -160 -1.5
      vertex 297 -210 1.5
      vertex 297 -210 -1.5
    endloop
  endfacet
  facet normal -0 0 1
    outer loop
      vertex 120.925 -65.1616 1.5
      vertex 147.625 -79.5288 1.5
      vertex 120.925 -65.1447 1.5
    endloop
  endfacet
  facet normal -0 0 1
    outer loop
      vertex 169.895 -111.987 1.5
      vertex 297 -160 1.5
      vertex 178.438 -96.1284 1.5
    endloop
  endfacet
  facet normal 0 0 1
    outer loop
      vertex 297 -160 1.5
      vertex 169.895 -111.987 1.5
      vertex 297 -210 1.5
    endloop
  endfacet
  facet normal 0 0 1
    outer loop
      vertex 0 -150 1.5
      vertex 169.895 -111.987 1.5
      vertex 139.082 -95.3872 1.5
    endloop
  endfacet
  facet normal 0 0 1
    outer loop
      vertex 147.625 -79.5288 1.5
      vertex 120.925 -65.1616 1.5
      vertex 139.082 -95.3872 1.5
    endloop
  endfacet
  facet normal 0 0 1
    outer loop
      vertex 0 -150 1.5
      vertex 120.925 -65.1616 1.5
      vertex 74.2504 -40.0002 1.5
    endloop
  endfacet
  facet normal 0 0 1
    outer loop
      vertex 0 -150 1.5
      vertex 74.2504 -40.0002 1.5
      vertex 69.6094 -37.5 1.5
    endloop
  endfacet
  facet normal 0 0 1
    outer loop
      vertex 0 -150 1.5
      vertex 69.6094 -37.5 1.5
      vertex 0 -37.5 1.5
    endloop
  endfacet
  facet normal 0 0 1
    outer loop
      vertex 120.925 -65.1616 1.5
      vertex 0 -150 1.5
      vertex 139.082 -95.3872 1.5
    endloop
  endfacet
  facet normal 0 0 1
    outer loop
      vertex 169.895 -111.987 1.5
      vertex 0 -150 1.5
      vertex 297 -210 1.5
    endloop
  endfacet
  facet normal -0.19802 -0.980198 0
    outer loop
      vertex 0 -150 -1.5
      vertex 297 -210 1.5
      vertex 0 -150 1.5
    endloop
  endfacet
  facet normal -0.19802 -0.980198 -0
    outer loop
      vertex 297 -210 1.5
      vertex 0 -150 -1.5
      vertex 297 -210 -1.5
    endloop
  endfacet
  facet normal 0 0 -1
    outer loop
      vertex 169.895 -111.987 -1.5
      vertex 297 -160 -1.5
      vertex 297 -210 -1.5
    endloop
  endfacet
  facet normal 0 0 -1
    outer loop
      vertex 297 -160 -1.5
      vertex 169.895 -111.987 -1.5
      vertex 178.438 -96.1284 -1.5
    endloop
  endfacet
  facet normal 0 0 -1
    outer loop
      vertex 0 -150 -1.5
      vertex 169.895 -111.987 -1.5
      vertex 297 -210 -1.5
    endloop
  endfacet
  facet normal 0 0 -1
    outer loop
      vertex 0 -150 -1.5
      vertex 120.925 -65.1616 -1.5
      vertex 139.082 -95.3872 -1.5
    endloop
  endfacet
  facet normal -0 0 -1
    outer loop
      vertex 120.925 -65.1616 -1.5
      vertex 0 -150 -1.5
      vertex 74.2504 -40.0002 -1.5
    endloop
  endfacet
  facet normal -0 0 -1
    outer loop
      vertex 169.895 -111.987 -1.5
      vertex 0 -150 -1.5
      vertex 139.082 -95.3872 -1.5
    endloop
  endfacet
  facet normal -0 0 -1
    outer loop
      vertex 74.2504 -40.0002 -1.5
      vertex 0 -150 -1.5
      vertex 69.6094 -37.5 -1.5
    endloop
  endfacet
  facet normal -0 0 -1
    outer loop
      vertex 69.6094 -37.5 -1.5
      vertex 0 -150 -1.5
      vertex 0 -37.5 -1.5
    endloop
  endfacet
  facet normal 0 0 -1
    outer loop
      vertex 120.925 -65.1616 -1.5
      vertex 147.625 -79.5288 -1.5
      vertex 139.082 -95.3872 -1.5
    endloop
  endfacet
  facet normal 0 0 -1
    outer loop
      vertex 147.625 -79.5288 -1.5
      vertex 120.925 -65.1616 -1.5
      vertex 120.925 -65.1447 -1.5
    endloop
  endfacet
  facet normal 0.474281 0.880373 -0
    outer loop
      vertex 169.895 -111.987 -1.5
      vertex 139.082 -95.3872 1.5
      vertex 169.895 -111.987 1.5
    endloop
  endfacet
  facet normal 0.474281 0.880373 0
    outer loop
      vertex 139.082 -95.3872 1.5
      vertex 169.895 -111.987 -1.5
      vertex 139.082 -95.3872 -1.5
    endloop
  endfacet
  facet normal 0.880382 -0.474266 0
    outer loop
      vertex 139.082 -95.3872 1.5
      vertex 147.625 -79.5288 -1.5
      vertex 147.625 -79.5288 1.5
    endloop
  endfacet
  facet normal 0.880382 -0.474266 0
    outer loop
      vertex 147.625 -79.5288 -1.5
      vertex 139.082 -95.3872 1.5
      vertex 139.082 -95.3872 -1.5
    endloop
  endfacet
  facet normal -0.880384 0.474261 0
    outer loop
      vertex 169.895 -111.987 -1.5
      vertex 178.438 -96.1284 1.5
      vertex 178.438 -96.1284 -1.5
    endloop
  endfacet
  facet normal -0.880384 0.474261 0
    outer loop
      vertex 178.438 -96.1284 1.5
      vertex 169.895 -111.987 -1.5
      vertex 169.895 -111.987 1.5
    endloop
  endfacet
endsolid OpenSCAD_Model
