<?xml version="1.0" standalone="no"?>
<!DOCTYPE svg PUBLIC "-//W3C//DTD SVG 1.1//EN" "http://www.w3.org/Graphics/SVG/1.1/DTD/svg11.dtd">
<svg width="297mm" height="1750mm" viewBox="0 -1760 297 1750" xmlns="http://www.w3.org/2000/svg" version="1.1">
<title>OpenSCAD Model</title>
<path d="
M 297,-1685 L 297,-1760 L 0,-1600 L 0,-1575 z
M 150,-1540 L 0,-1540 L 0,-1500 L 150,-1500 z
M 297,-1502.5 L 297,-1540 L 0,-1380 L 0,-1367.5 z
M 297,-1465 L 297,-1502.5 L 0,-1342.5 L 0,-1330 z
M 297,-1382.5 L 147,-1382.5 L 147,-1330 L 297,-1330 z
M 50,-1295 L 25,-1320 L 0,-1295 L 0,-1192.5 L 25,-1217.5 L 50,-1192.5
 z
M 297,-1245 L 297,-1320 L 0,-1160 L 0,-1135 z
M 289.574,-1146.76 L 37.5844,-1146.76 L 45.0101,-1110 L 297,-1110 z
M 150,-1100 L 0,-1100 L 0,-1047.5 L 150,-1047.5 z
M 297,-950 L 297,-1100 L 0,-940 L 0,-890 z
M 297,-720 L 0,-880 L 0,-805 L 297,-695 z
M 297,-660 L 147,-660 L 147,-620 L 297,-620 z
M 297,-500 L 0,-660 L 0,-622.5 L 297,-487.5 z
M 297,-462.5 L 0,-622.5 L 0,-585 L 297,-450 z
M 150,-502.5 L 0,-502.5 L 0,-450 L 150,-450 z
M 297,-280 L 0,-440 L 0,-365 L 297,-255 z
M 297,-415 L 272,-440 L 247,-415 L 247,-312.5 L 272,-337.5 L 297,-312.5
 z
M 259.416,-266.757 L 7.42574,-266.757 L 0,-230 L 251.99,-230 z
M 297,-220 L 147,-220 L 147,-167.5 L 297,-167.5 z
M 297,-60 L 0,-220 L 0,-70 L 297,-10 z
" stroke="black" fill="lightgray" stroke-width="0.5"/>
</svg>
