<?xml version="1.0" standalone="no"?>
<!DOCTYPE svg PUBLIC "-//W3C//DTD SVG 1.1//EN" "http://www.w3.org/Graphics/SVG/1.1/DTD/svg11.dtd">
<svg width="297mm" height="1750mm" viewBox="0 -1760 297 1750" xmlns="http://www.w3.org/2000/svg" version="1.1">
<title>OpenSCAD Model</title>
<path d="
M 297,-1685 L 297,-1760 L 151.7,-1681.72 L 160.918,-1664.61 L 130.105,-1648.01 L 120.887,-1665.12
 L 0,-1600 L 0,-1575 z
M 297,-1502.5 L 297,-1540 L 151.7,-1461.72 L 160.918,-1444.61 L 130.105,-1428.01 L 120.887,-1445.12
 L 0,-1380 L 0,-1367.5 z
M 297,-1465 L 297,-1502.5 L 0,-1342.5 L 0,-1330 z
M 297,-1382.5 L 147,-1382.5 L 147,-1330 L 297,-1330 z
M 50,-1295 L 25,-1320 L 0,-1295 L 0,-1192.5 L 25,-1217.5 L 50,-1192.5
 z
M 297,-1245 L 297,-1320 L 151.7,-1241.72 L 160.918,-1224.61 L 130.105,-1208.01 L 120.887,-1225.12
 L 0,-1160 L 0,-1135 z
M 289.574,-1146.76 L 37.5844,-1146.76 L 45.0101,-1110 L 297,-1110 z
M 165.812,-1133.18 L 166.792,-1133.38 L 168.772,-1123.58 L 167.792,-1123.38 z
M 297,-950 L 297,-1100 L 151.7,-1021.72 L 160.918,-1004.61 L 130.105,-988.013 L 120.887,-1005.12
 L 0,-940 L 0,-890 z
M 150,-1100 L 0,-1100 L 0,-1047.5 L 150,-1047.5 z
M 297,-720 L 176.113,-785.124 L 166.895,-768.013 L 136.082,-784.613 L 145.3,-801.724 L 0,-880
 L 0,-805 L 297,-695 z
M 297,-500 L 176.113,-565.124 L 166.895,-548.013 L 136.082,-564.613 L 145.3,-581.724 L 0,-660
 L 0,-622.5 L 297,-487.5 z
M 297,-462.5 L 0,-622.5 L 0,-585 L 297,-450 z
M 150,-502.5 L 0,-502.5 L 0,-450 L 150,-450 z
M 297,-415 L 272,-440 L 247,-415 L 247,-312.5 L 272,-337.5 L 297,-312.5
 z
M 297,-280 L 176.113,-345.124 L 166.895,-328.013 L 136.082,-344.613 L 145.3,-361.724 L 0,-440
 L 0,-365 L 297,-255 z
M 259.416,-266.757 L 7.42574,-266.757 L 0,-230 L 251.99,-230 z
M 128.228,-243.577 L 130.208,-253.379 L 131.188,-253.181 L 129.208,-243.379 z
M 297,-220 L 147,-220 L 147,-167.5 L 297,-167.5 z
M 297,-60 L 176.113,-125.124 L 166.895,-108.013 L 136.082,-124.613 L 145.3,-141.724 L 0,-220
 L 0,-70 L 297,-10 z
" stroke="black" fill="lightgray" stroke-width="0.5"/>
</svg>
