<?xml version="1.0" standalone="no"?>
<!DOCTYPE svg PUBLIC "-//W3C//DTD SVG 1.1//EN" "http://www.w3.org/Graphics/SVG/1.1/DTD/svg11.dtd">
<svg width="297mm" height="1310mm" viewBox="0 -1320 297 1310" xmlns="http://www.w3.org/2000/svg" version="1.1">
<title>OpenSCAD Model</title>
<path d="
M 294,-1320 L 144,-1320 L 144,-1280 L 294,-1280 z
M 297,-1160 L 0,-1320 L 0,-1282.5 L 297,-1147.5 z
M 297,-1122.5 L 0,-1282.5 L 0,-1245 L 297,-1110 z
M 150,-1162.5 L 0,-1162.5 L 0,-1110 L 150,-1110 z
M 297,-940 L 0,-1100 L 0,-1025 L 297,-915 z
M 297,-1075 L 272,-1100 L 247,-1075 L 247,-972.5 L 272,-997.5 L 297,-972.5
 z
M 256.96,-914.604 L 4.97049,-914.604 L 0.019989,-890.099 L 252.01,-890.099 z
M 297,-720 L 0,-880 L 0,-730 L 297,-670 z
M 297,-880 L 147,-880 L 147,-827.5 L 297,-827.5 z
M 297,-500 L 0,-660 L 0,-622.5 L 297,-487.5 z
M 294,-660 L 144,-660 L 144,-620 L 294,-620 z
M 297,-462.5 L 0,-622.5 L 0,-585 L 297,-450 z
M 150,-502.5 L 0,-502.5 L 0,-450 L 150,-450 z
M 297,-280 L 0,-440 L 0,-365 L 297,-255 z
M 297,-415 L 272,-440 L 247,-415 L 247,-312.5 L 272,-337.5 L 297,-312.5
 z
M 256.96,-254.604 L 4.97049,-254.604 L 0.019989,-230.099 L 252.01,-230.099 z
M 297,-60 L 0,-220 L 0,-70 L 297,-10 z
M 297,-220 L 147,-220 L 147,-167.5 L 297,-167.5 z
" stroke="black" fill="lightgray" stroke-width="0.5"/>
</svg>
